<?xml version="1.0" encoding="UTF-8" standalone="no"?><!DOCTYPE svg PUBLIC "-//W3C//DTD SVG 1.1//EN" "http://www.w3.org/Graphics/SVG/1.1/DTD/svg11.dtd"><svg width="100%" height="100%" viewBox="0 0 301 81" version="1.1" xmlns="http://www.w3.org/2000/svg" xmlns:xlink="http://www.w3.org/1999/xlink" xml:space="preserve" style="fill-rule:evenodd;clip-rule:evenodd;stroke-linejoin:round;stroke-miterlimit:1.41421;"><path d="M138.758,11.513c0,1.871 -1.874,3.464 -5.618,4.781c-3.743,1.317 -8.253,1.977 -13.525,1.977c-6.876,0 -15.303,-1.05 -25.275,-3.149c-4.851,2.291 -9.314,5.774 -13.383,10.45c-4.068,4.677 -8.492,11.406 -13.266,20.187c2.367,0.381 4.334,0.687 5.901,0.916c2.139,-4.926 5.196,-7.386 9.17,-7.386c2.712,0 4.069,1.05 4.069,3.15c0,1.68 -0.907,3.044 -2.721,4.095c-1.815,1.05 -4.194,1.575 -7.136,1.575l-1.147,0c-0.115,0.152 -0.591,1.166 -1.433,3.035c-0.956,2.214 -2.33,4.096 -4.128,5.642c-1.792,1.547 -3.475,2.318 -5.042,2.318c-0.536,0 -0.802,-0.114 -0.802,-0.344c0,-0.19 0.191,-0.344 0.572,-0.459c2.636,-0.802 5.309,-4.332 8.021,-10.594c-1.108,-0.115 -2.712,-0.345 -4.812,-0.687l-1.088,-0.23c-0.536,0.956 -1.319,2.368 -2.351,4.237c-3.287,5.878 -5.951,10.079 -7.996,12.598c-2.044,2.519 -4.805,5.001 -8.282,7.445c-9.246,6.49 -18.799,9.734 -28.657,9.734c-5.808,0 -10.564,-1.212 -14.271,-3.636c-3.707,-2.423 -5.558,-5.546 -5.558,-9.362c0,-1.909 0.563,-3.541 1.69,-4.897c1.127,-1.356 2.475,-2.033 4.039,-2.033c2.522,0 3.783,1.278 3.783,3.836c0,1.183 -0.39,2.204 -1.173,3.064c-0.783,0.86 -1.729,1.288 -2.837,1.288c-1.873,0 -2.807,-0.896 -2.807,-2.693c0.115,-0.915 0,-1.373 -0.345,-1.373c-0.726,0 -1.088,1.012 -1.088,3.035c0,3.206 1.673,5.947 5.016,8.217c3.342,2.27 7.384,3.408 12.121,3.408c7.451,0 14.156,-2.223 20.117,-6.67c5.962,-4.447 12.496,-12.131 19.602,-23.051c0.612,-0.877 1.509,-2.233 2.695,-4.066l-1.088,0c-4.28,0 -7.241,1.642 -8.884,4.926c-0.191,0.535 -0.401,0.801 -0.631,0.801c-0.306,0 -0.46,-0.151 -0.46,-0.459c0,-1.527 1.078,-2.968 3.238,-4.324c2.159,-1.356 4.44,-2.033 6.849,-2.033l1.663,0c10.009,-15.12 20.497,-25.12 31.461,-30.007c-2.942,-0.65 -5.998,-1.393 -9.17,-2.234c-10.241,-2.672 -18.185,-4.009 -23.839,-4.009c-1.147,0 -2.235,0.039 -3.267,0.115c1.643,3.169 2.465,6.738 2.465,10.709c0,8.322 -3.257,16.168 -9.772,23.537c-6.516,7.369 -13.478,11.052 -20.89,11.052c-3.132,0 -5.673,-0.983 -7.622,-2.95c-1.949,-1.967 -2.922,-4.532 -2.922,-7.701c0,-7.215 3.754,-14.516 11.26,-21.905c7.508,-7.389 15.885,-12.055 25.134,-14c-2.905,-4.316 -7.356,-6.47 -13.354,-6.47c-9.821,0 -18.702,4.771 -26.649,14.315c-0.65,0.65 -1.013,0.973 -1.088,0.973c-0.231,0 -0.382,-0.134 -0.46,-0.401c0,-0.687 1.604,-2.519 4.815,-5.497c7.411,-6.871 15.073,-10.309 22.981,-10.309c7.03,0 12.131,2.387 15.303,7.159c4.049,-1.031 8.769,-1.547 14.153,-1.547c3.401,0 6.534,0.266 9.4,0.802c2.865,0.535 9.762,2.098 20.69,4.696c8.519,-3.284 16.505,-4.926 23.956,-4.926c4.395,0 7.938,0.486 10.632,1.461c2.695,0.975 4.041,2.265 4.041,3.868l0,0Zm-81.726,5.153c0,-2.558 -0.63,-5.136 -1.89,-7.731c-8.788,1.107 -17.022,5.298 -24.702,12.571c-7.681,7.274 -11.52,14.499 -11.52,21.675c0,2.673 0.851,4.943 2.55,6.815c1.7,1.872 3.813,2.805 6.333,2.805c6.649,0 13.183,-3.981 19.602,-11.941c6.419,-7.958 9.627,-16.023 9.627,-24.194l0,0Zm28.77,25.885c0,-1.642 -0.937,-2.463 -2.808,-2.463c-2.484,0 -4.604,1.967 -6.363,5.898l-0.459,1.031l1.433,0c2.369,0 4.328,-0.42 5.873,-1.26c1.546,-0.841 2.324,-1.908 2.324,-3.206l0,0Zm51.867,-30.923c0,-1.183 -1.252,-2.204 -3.753,-3.064c-2.502,-0.86 -5.512,-1.288 -9.026,-1.288c-8.329,0 -15.97,1.452 -22.925,4.352l7.681,1.717c6.419,1.488 12.321,2.234 17.709,2.234c2.751,0 5.157,-0.401 7.221,-1.202c2.064,-0.802 3.093,-1.718 3.093,-2.749Z" style="fill-rule:nonzero;"/><path d="M111.421,19.816c-16.046,26.686 -25.4,42.377 -28.055,47.073c-2.655,4.696 -3.984,7.807 -3.984,9.334c0,1.718 0.727,2.578 2.182,2.578c3.213,0 9.106,-6.06 17.677,-18.182c0.19,-0.381 0.421,-0.571 0.687,-0.571c0.151,0.039 0.23,0.151 0.23,0.344c0,0.23 -0.191,0.538 -0.572,0.919l-2.47,3.384c-7.228,9.979 -12.566,14.968 -16.007,14.968c-1.646,0 -2.996,-0.621 -4.045,-1.862c-1.054,-1.241 -1.579,-2.815 -1.579,-4.725c0,-2.099 0.486,-4.132 1.462,-6.099c0.976,-1.966 4.289,-7.645 9.943,-17.038c6.915,-11.49 12.742,-21.454 17.479,-29.892c1.146,0.306 2.159,0.46 3.037,0.46c1.455,-0.003 2.792,-0.232 4.015,-0.691l0,0Z" style="fill-rule:nonzero;"/><path d="M134.087,60.331c0,0.609 -1.128,2.038 -3.384,4.281c-3.366,3.35 -6.464,5.026 -9.293,5.026c-1.183,0 -2.237,-0.229 -3.154,-0.687c-5.045,7.14 -9.789,10.709 -14.222,10.709c-2.294,0 -4.255,-0.945 -5.878,-2.834c-1.627,-1.888 -2.439,-4.151 -2.439,-6.785c0,-5.879 3.859,-11.549 11.577,-17.008c5.426,-3.856 9.896,-5.783 13.41,-5.783c3.286,0 4.929,1.756 4.929,5.267c0,4.391 -2.31,9.679 -6.935,15.863c0.763,0.459 1.624,0.687 2.58,0.687c1.719,0 3.727,-0.8 6.028,-2.397c2.296,-1.596 4.174,-3.519 5.632,-5.765c0.423,-0.532 0.731,-0.799 0.921,-0.799c0.152,-0.002 0.227,0.074 0.227,0.225l0.001,0Zm-9.313,-7.701c0.001,-3.093 -1.393,-4.638 -4.183,-4.638c-3.477,0 -7.717,3.321 -12.723,9.964c-5.005,6.644 -7.507,12.236 -7.507,16.779c0,2.634 1.262,3.951 3.783,3.951c4.128,0 8.634,-3.399 13.525,-10.194c-1.108,-1.222 -1.663,-2.482 -1.663,-3.78c0,-1.871 0.746,-3.799 2.235,-5.783c1.489,-1.984 2.942,-2.978 4.355,-2.978c0.612,0 1.032,0.381 1.262,1.146c0.611,-1.338 0.916,-2.826 0.916,-4.467Z" style="fill-rule:nonzero;"/><path d="M166.868,60.39c0,0.308 -1.149,1.703 -3.442,4.195c-2.91,3.216 -5.649,4.826 -8.212,4.826c-2.907,0 -4.362,-1.681 -4.362,-5.039c0,-1.07 0.23,-2.423 0.687,-4.065c-2.407,2.099 -4.365,4.18 -5.874,6.243c-1.508,2.062 -4.117,6.26 -7.822,12.597c-2.025,-0.151 -3.209,-0.229 -3.553,-0.229c-0.152,0 -1.319,0.076 -3.497,0.229l9.399,-15.231c4.701,-7.636 7.05,-12.369 7.05,-14.201c0,-1.07 -0.44,-1.603 -1.32,-1.603c-2.145,0 -6.03,4.115 -11.659,12.342c-0.347,0.534 -0.653,0.801 -0.92,0.801c-0.151,-0.039 -0.23,-0.152 -0.23,-0.345c0.04,-0.19 0.115,-0.344 0.23,-0.459l1.035,-1.437c5.893,-7.84 9.891,-11.762 11.996,-11.762c3.062,0 4.593,1.967 4.593,5.898c0,2.939 -1.568,6.834 -4.701,11.682c1.986,-2.292 3.879,-4.161 5.673,-5.612c1.453,-3.399 3.258,-6.243 5.417,-8.533c2.159,-2.289 4.099,-3.435 5.818,-3.435c1.183,0 1.777,0.515 1.777,1.547c0,1.832 -2.656,4.446 -7.966,7.846c-0.842,0.534 -2.101,1.316 -3.783,2.348l-0.687,0.571c-0.536,1.757 -0.803,3.206 -0.803,4.352c0,3.205 1.206,4.811 3.617,4.811c2.986,0 6.241,-2.471 9.762,-7.411c0.763,-0.843 1.245,-1.266 1.435,-1.266c0.228,-0.004 0.342,0.11 0.342,0.34l0,0Z" style="fill-rule:nonzero;"/><path d="M187.933,47.247l-0.46,0.86l-7.507,0l-12.782,21.819c-1.567,2.634 -2.35,4.736 -2.35,6.299c0,1.718 0.897,2.578 2.7,2.578c3.482,0 9.353,-6.059 17.618,-18.181c0.267,-0.381 0.496,-0.572 0.688,-0.572c0.229,0 0.344,0.115 0.344,0.345c-0.039,0.115 -0.23,0.42 -0.572,0.919l-2.467,3.384c-7.192,9.978 -12.604,14.968 -16.24,14.968c-1.797,0 -3.298,-0.651 -4.504,-1.948c-1.206,-1.297 -1.807,-2.92 -1.807,-4.867c0,-2.292 1.012,-5.153 3.037,-8.591l9.63,-16.148l-5.847,0l0.572,-0.86l5.732,0l6.705,-11.11c1.147,0.306 2.235,0.459 3.267,0.459c1.071,0 2.179,-0.151 3.323,-0.459l-6.59,11.11l7.51,0l0,-0.005l0,0Z" style="fill-rule:nonzero;"/><path d="M218.851,60.39c0,0.308 -1.149,1.703 -3.443,4.195c-2.91,3.216 -5.649,4.826 -8.211,4.826c-2.907,0 -4.362,-1.681 -4.362,-5.039c0,-1.07 0.229,-2.423 0.687,-4.065c-2.406,2.099 -4.365,4.18 -5.874,6.243c-1.509,2.062 -4.118,6.26 -7.823,12.597c-2.024,-0.151 -3.208,-0.229 -3.553,-0.229c-0.151,0 -1.318,0.076 -3.497,0.229l9.4,-15.231c4.7,-7.636 7.05,-12.369 7.05,-14.201c0,-1.07 -0.44,-1.603 -1.32,-1.603c-2.145,0 -6.031,4.115 -11.66,12.342c-0.347,0.534 -0.653,0.801 -0.919,0.801c-0.152,-0.039 -0.23,-0.152 -0.23,-0.345c0.039,-0.19 0.115,-0.344 0.23,-0.459l1.034,-1.437c5.894,-7.84 9.892,-11.762 11.997,-11.762c3.062,0 4.592,1.967 4.592,5.898c0,2.939 -1.567,6.834 -4.7,11.682c1.986,-2.292 3.878,-4.161 5.673,-5.612c1.453,-3.399 3.257,-6.243 5.417,-8.533c2.159,-2.289 4.098,-3.435 5.817,-3.435c1.184,0 1.778,0.515 1.778,1.547c0,1.832 -2.656,4.446 -7.967,7.846c-0.841,0.534 -2.1,1.316 -3.783,2.348l-0.687,0.571c-0.535,1.757 -0.802,3.206 -0.802,4.352c0,3.205 1.206,4.811 3.616,4.811c2.986,0 6.241,-2.471 9.762,-7.411c0.763,-0.843 1.245,-1.266 1.436,-1.266c0.227,-0.004 0.342,0.11 0.342,0.34l0,0Z" style="fill-rule:nonzero;"/><path d="M259.084,60.39c0,0.804 -2.792,4.513 -8.378,11.127c-4.514,5.429 -8.072,8.143 -10.671,8.143c-1.761,0 -3.196,-0.659 -4.304,-1.976c-1.11,-1.317 -1.665,-2.968 -1.665,-4.953c0,-2.062 0.611,-4.295 1.834,-6.7c-3.82,5.346 -6.744,8.953 -8.769,10.824c-2.025,1.872 -3.993,2.805 -5.903,2.805c-2.025,0 -3.724,-0.867 -5.101,-2.604c-1.376,-1.737 -2.064,-3.921 -2.064,-6.558c0,-7.33 5.177,-13.82 15.533,-19.471c4.546,-2.519 8.213,-3.78 11.004,-3.78c2.369,0 3.553,1.146 3.553,3.436c0,0.649 -0.152,1.507 -0.46,2.577l2.922,-5.553c1.147,0.266 2.159,0.4 3.037,0.4c1.032,0 2.37,-0.134 4.013,-0.4l-10.143,16.778c-3.517,5.878 -5.273,9.754 -5.273,11.626c0,1.793 0.747,2.692 2.238,2.692c1.531,0 3.981,-1.75 7.348,-5.246c3.368,-3.501 6.791,-7.809 10.273,-12.935c0.23,-0.381 0.44,-0.572 0.631,-0.572c0.23,-0.004 0.345,0.11 0.345,0.34Zm-15.79,-9.478c0,-1.871 -0.86,-2.805 -2.579,-2.805c-3.517,0 -8.129,3.436 -13.841,10.309c-5.712,6.873 -8.568,12.427 -8.568,16.663c0,2.483 1.107,3.722 3.323,3.722c2.636,0 7.201,-4.372 13.699,-13.114c5.311,-7.178 7.966,-12.102 7.966,-14.775l0,0Z" style="fill-rule:nonzero;"/><path d="M278.801,60.39c-0.039,0.115 -0.231,0.42 -0.573,0.919l-2.467,3.384c-7.192,9.978 -12.684,14.967 -16.467,14.967c-1.797,0 -3.299,-0.639 -4.504,-1.917c-1.206,-1.278 -1.808,-2.874 -1.808,-4.782c0,-2.214 1.319,-5.574 3.955,-10.079l8.94,-15.175c1.184,0.266 2.12,0.4 2.807,0.4c1.032,0 2.485,-0.134 4.355,-0.4l-13.009,21.36c-1.873,3.093 -2.807,5.478 -2.807,7.158c0,1.718 0.897,2.578 2.699,2.578c3.405,0 9.393,-6.059 17.964,-18.181c0.191,-0.381 0.381,-0.572 0.572,-0.572c0.228,-0.004 0.343,0.11 0.343,0.34l-0.001,0Zm-0.831,-23.681c0,1.336 -0.563,2.587 -1.69,3.75c-1.127,1.164 -2.36,1.747 -3.697,1.747c-1.72,0 -2.58,-0.859 -2.58,-2.578c0,-1.26 0.592,-2.472 1.778,-3.635c1.185,-1.163 2.425,-1.747 3.724,-1.747c1.643,0.003 2.465,0.823 2.465,2.463l0,0Z" style="fill-rule:nonzero;"/><path d="M300.033,47.247l-0.46,0.86l-7.507,0l-12.782,21.819c-1.567,2.634 -2.35,4.736 -2.35,6.299c0,1.718 0.898,2.578 2.7,2.578c3.482,0 9.354,-6.059 17.619,-18.181c0.266,-0.381 0.496,-0.572 0.687,-0.572c0.23,0 0.345,0.115 0.345,0.345c-0.039,0.115 -0.231,0.42 -0.573,0.919l-2.467,3.384c-7.192,9.978 -12.603,14.968 -16.239,14.968c-1.798,0 -3.299,-0.651 -4.505,-1.948c-1.205,-1.297 -1.806,-2.92 -1.806,-4.867c0,-2.292 1.011,-5.153 3.036,-8.591l9.63,-16.148l-5.847,0l0.573,-0.86l5.731,0l6.705,-11.11c1.147,0.306 2.235,0.459 3.267,0.459c1.071,0 2.179,-0.151 3.323,-0.459l-6.59,11.11l7.51,0l0,-0.005l0,0Z" style="fill-rule:nonzero;"/></svg>