<?xml version="1.0" standalone="no"?><!DOCTYPE svg PUBLIC "-//W3C//DTD SVG 1.1//EN" "http://www.w3.org/Graphics/SVG/1.1/DTD/svg11.dtd"><svg width="100%" height="100%" viewBox="0 0 34 34" version="1.1" xmlns="http://www.w3.org/2000/svg" xmlns:xlink="http://www.w3.org/1999/xlink" xml:space="preserve" style="fill-rule:evenodd;clip-rule:evenodd;stroke-linejoin:round;stroke-miterlimit:1.41421;"><rect x="0" y="0" width="18.925" height="32.224" style="fill:#000;"/><path d="M8.256,30.58l3.234,0c0.292,0 0.53,-0.235 0.53,-0.525c0,-0.001 0.001,-0.002 0.001,-0.002l0.001,-0.001l0.003,-0.005l0.005,-0.007l0.03,-0.048l0.114,-0.19l0.407,-0.709l0.571,-1.055l0.32,-0.624l0.327,-0.67l0.326,-0.702l0.311,-0.723l0.147,-0.363l0.14,-0.364l0.13,-0.361l0.12,-0.358l0.109,-0.354l0.095,-0.345l0.043,-0.17l0.038,-0.167l0.035,-0.166l0.031,-0.161l0.026,-0.158l0.021,-0.157l0.017,-0.152l0.013,-0.148l0.007,-0.144l0.002,-0.071l0,-0.07l0,-0.068l-0.003,-0.068l-0.003,-0.067l-0.005,-0.066l-0.007,-0.063l-0.007,-0.063l-0.01,-0.062l-0.01,-0.061l-0.013,-0.059l-0.013,-0.058l-0.014,-0.057l-0.016,-0.056l-0.016,-0.055l-0.018,-0.054l-0.018,-0.053l-0.021,-0.052l-0.019,-0.051l-0.021,-0.051l-0.023,-0.049l-0.024,-0.049l-0.025,-0.047l-0.024,-0.047l-0.028,-0.046l-0.026,-0.046l-0.028,-0.045l-0.029,-0.043l-0.03,-0.045l-0.03,-0.042l-0.03,-0.042l-0.032,-0.041l-0.064,-0.079l-0.068,-0.078l-0.067,-0.075l-0.072,-0.073l-0.071,-0.072l-0.073,-0.069l-0.075,-0.067l-0.148,-0.13l-0.58,-0.482l-0.132,-0.118l-0.061,-0.059l-0.06,-0.059l-0.057,-0.06l-0.027,-0.031l-0.027,-0.03l-0.025,-0.031l-0.025,-0.031l-0.023,-0.032l-0.023,-0.031l-0.022,-0.032l-0.02,-0.033l-0.02,-0.032l-0.018,-0.033l-0.018,-0.034l-0.016,-0.033l-0.015,-0.034l-0.015,-0.035l-0.006,-0.018l-0.008,-0.017l-0.006,-0.017l-0.006,-0.018l-0.006,-0.018l-0.004,-0.017l-0.006,-0.018l-0.004,-0.018l-0.004,-0.019l-0.004,-0.019l-0.003,-0.018l-0.003,-0.018l-0.003,-0.019l-0.003,-0.019l-0.002,-0.02l-0.001,-0.018l-0.002,-0.019l-0.001,-0.02l0,-0.021l0,-0.018l0,-0.021l0,-0.021l0.001,-0.021l0.002,-0.02l0.003,-0.02l0.001,-0.022l0.003,-0.02l0.003,-0.022l0.008,-0.044l0.009,-0.045l0.01,-0.045l0.014,-0.047l0.015,-0.046l0.016,-0.047l0.018,-0.049l0.018,-0.049l0.022,-0.05l0.023,-0.051l0.027,-0.052l0.027,-0.053l0.029,-0.053l0.032,-0.056l0.035,-0.056l0.035,-0.057l0.078,-0.117l0.087,-0.123l0.096,-0.126l0.106,-0.132l0.115,-0.136l0.125,-0.141l0.135,-0.145c0.016,-0.017 0.024,-0.038 0.024,-0.06c0.001,-0.29 -0.234,-0.526 -0.527,-0.527l-0.002,0l-6.098,0l-2.094,0c-0.293,0 -0.53,0.236 -0.53,0.525l0,0.002c0,0.022 0.009,0.043 0.023,0.06l0.136,0.145l0.125,0.141l0.116,0.136l0.106,0.132l0.096,0.126l0.087,0.123l0.078,0.117l0.036,0.057l0.033,0.056l0.033,0.056l0.029,0.053l0.028,0.053l0.024,0.052l0.024,0.051l0.022,0.05l0.02,0.049l0.017,0.049l0.016,0.047l0.014,0.046l0.013,0.047l0.01,0.045l0.01,0.045l0.007,0.044l0.004,0.022l0.003,0.02l0.002,0.022l0.003,0.04l0.001,0.021l0,0.081l-0.001,0.02l-0.002,0.019l-0.001,0.018l-0.002,0.02l-0.001,0.019l-0.003,0.019l-0.004,0.018l-0.004,0.018l-0.004,0.019l-0.003,0.019l-0.005,0.018l-0.004,0.018l-0.006,0.017l-0.006,0.018l-0.006,0.018l-0.006,0.017l-0.006,0.017l-0.006,0.018l-0.015,0.035l-0.016,0.034l-0.016,0.033l-0.017,0.034l-0.019,0.033l-0.019,0.032l-0.021,0.033l-0.021,0.032l-0.024,0.031l-0.024,0.032l-0.024,0.031l-0.025,0.031l-0.026,0.03l-0.027,0.031l-0.057,0.06l-0.06,0.059l-0.063,0.059l-0.131,0.118l-0.58,0.482l-0.15,0.13l-0.073,0.067l-0.073,0.069l-0.071,0.072l-0.071,0.073l-0.069,0.075l-0.066,0.078l-0.065,0.079l-0.031,0.041l-0.031,0.042l-0.03,0.042l-0.03,0.045l-0.029,0.043l-0.027,0.045l-0.027,0.046l-0.027,0.046l-0.025,0.047l-0.024,0.047l-0.023,0.049l-0.024,0.049l-0.021,0.051l-0.021,0.051l-0.02,0.052l-0.018,0.053l-0.016,0.054l-0.017,0.055l-0.016,0.056l-0.015,0.057l-0.013,0.058l-0.012,0.059l-0.01,0.061l-0.01,0.062l-0.008,0.063l-0.006,0.063l-0.005,0.066l-0.004,0.067l-0.002,0.068l-0.002,0.068l0,0.07l0.003,0.071l0.008,0.144l0.012,0.148l0.017,0.152l0.022,0.157l0.026,0.158l0.031,0.161l0.034,0.166l0.039,0.167l0.042,0.17l0.096,0.345l0.109,0.354l0.12,0.358l0.129,0.361l0.14,0.364l0.147,0.363l0.312,0.723l0.324,0.702l0.329,0.67l0.319,0.624l0.571,1.055l0.407,0.709l0.114,0.19l0.03,0.048l0.005,0.007l0.004,0.005l0.001,0.002c0.001,0.291 0.238,0.526 0.53,0.526l0.817,0Z" style="fill:#fff;fill-rule:nonzero;"/><path d="M21.281,6.813c0.028,0.004 0.056,0.007 0.083,0.012c0.055,0.012 0.109,0.03 0.16,0.053c0.179,0.083 0.321,0.236 0.39,0.421c0.019,0.053 0.032,0.108 0.04,0.164c0.003,0.027 0.004,0.055 0.006,0.083l0.06,3.54c0.046,0.284 0.121,0.563 0.236,0.827c0.104,0.242 0.242,0.468 0.365,0.701c0.038,0.075 0.038,0.075 0.074,0.15c0.087,0.193 0.159,0.39 0.2,0.599c0.033,0.17 0.045,0.342 0.054,0.515c0.015,0.257 0.024,0.514 0.033,0.771c0.024,0.672 0.039,1.344 0.051,2.016c0.019,1.081 0.03,2.162 0.013,3.243c-0.007,0.387 -0.016,0.775 -0.038,1.162c-0.014,0.246 -0.029,0.494 -0.075,0.736c-0.046,0.244 -0.124,0.483 -0.206,0.717c-0.129,0.371 -0.278,0.735 -0.413,1.104c-0.034,0.095 -0.067,0.189 -0.098,0.284c-0.099,0.312 -0.184,0.63 -0.194,0.959l0,0.04l0,6.94l-0.005,0.084c-0.005,0.028 -0.008,0.056 -0.014,0.083c-0.025,0.11 -0.075,0.213 -0.145,0.301c-0.053,0.066 -0.116,0.123 -0.187,0.167c-0.217,0.136 -0.495,0.152 -0.725,0.041c-0.076,-0.037 -0.145,-0.086 -0.205,-0.145c-0.099,-0.1 -0.169,-0.227 -0.201,-0.364c-0.016,-0.073 -0.014,-0.092 -0.018,-0.167c0,-2.336 -0.023,-4.673 0,-7.009c0.006,-0.191 0.024,-0.381 0.057,-0.57c0.068,-0.395 0.189,-0.777 0.324,-1.153c0.122,-0.334 0.254,-0.664 0.376,-0.999c0.049,-0.139 0.098,-0.279 0.137,-0.422c0.016,-0.056 0.032,-0.113 0.043,-0.17c0.017,-0.091 0.025,-0.184 0.033,-0.276c0.01,-0.122 0.017,-0.245 0.024,-0.368c0.016,-0.333 0.024,-0.666 0.03,-1c0.013,-0.846 0.009,-1.692 -0.002,-2.539c-0.01,-0.715 -0.024,-1.429 -0.045,-2.144c-0.005,-0.166 -0.01,-0.333 -0.016,-0.499c-0.005,-0.137 -0.01,-0.282 -0.016,-0.419c-0.004,-0.103 -0.01,-0.217 -0.015,-0.32c-0.006,-0.11 -0.009,-0.221 -0.033,-0.328c-0.03,-0.136 -0.092,-0.261 -0.157,-0.382c-0.071,-0.131 -0.144,-0.261 -0.214,-0.392c-0.043,-0.082 -0.043,-0.082 -0.084,-0.166c-0.06,-0.128 -0.118,-0.257 -0.168,-0.389c-0.083,-0.22 -0.148,-0.445 -0.198,-0.674c-0.034,-0.153 -0.068,-0.31 -0.076,-0.466l-0.062,-3.593c0.001,-0.028 0.001,-0.056 0.003,-0.084c0.006,-0.056 0.017,-0.111 0.035,-0.164c0.071,-0.215 0.24,-0.39 0.452,-0.468c0.053,-0.02 0.108,-0.033 0.163,-0.04c0.028,-0.004 0.056,-0.005 0.084,-0.007c0.028,0.001 0.056,0.003 0.084,0.004Z" style="fill:#1d1d1b;fill-rule:nonzero;"/><path d="M33.227,20.019c-0.001,-0.808 -1.993,-1.462 -4.453,-1.462c-2.46,0 -4.454,0.654 -4.454,1.462c0,0.808 0.933,11.344 0.933,11.344c0,0.683 1.432,1.237 3.541,1.237c2.109,0 3.539,-0.554 3.539,-1.237c0,-0.683 0.893,-11.378 0.893,-11.378" style="fill:#000;fill-rule:nonzero;"/><path d="M28.885,18.006c0.677,0.006 1.355,0.045 2.026,0.14c0.381,0.054 0.761,0.126 1.132,0.231c0.213,0.061 0.424,0.133 0.623,0.229c0.153,0.074 0.301,0.162 0.424,0.28c0.083,0.08 0.153,0.174 0.197,0.281c0.082,0.198 0.059,0.426 -0.056,0.606c-0.06,0.094 -0.137,0.174 -0.224,0.244c-0.12,0.095 -0.256,0.169 -0.396,0.233c-0.205,0.093 -0.421,0.164 -0.639,0.223c-0.262,0.071 -0.528,0.126 -0.795,0.17c-0.793,0.133 -1.6,0.182 -2.402,0.182c-0.803,0 -1.61,-0.049 -2.403,-0.182c-0.267,-0.044 -0.533,-0.099 -0.795,-0.17c-0.218,-0.059 -0.434,-0.13 -0.639,-0.223c-0.14,-0.064 -0.276,-0.138 -0.396,-0.233c-0.087,-0.07 -0.164,-0.15 -0.224,-0.244c-0.115,-0.18 -0.138,-0.408 -0.056,-0.606c0.044,-0.107 0.114,-0.201 0.197,-0.281c0.123,-0.117 0.271,-0.206 0.424,-0.28c0.199,-0.096 0.41,-0.168 0.623,-0.229c0.371,-0.105 0.751,-0.177 1.132,-0.231c0.671,-0.095 1.349,-0.134 2.026,-0.14c0.074,-0.001 0.147,-0.001 0.221,0ZM28.669,18.756c-0.526,0.005 -1.052,0.03 -1.575,0.088c-0.353,0.04 -0.705,0.093 -1.052,0.171c-0.24,0.054 -0.479,0.118 -0.707,0.211c-0.078,0.032 -0.156,0.068 -0.229,0.11c-0.04,0.023 -0.08,0.048 -0.114,0.079c0.018,0.017 0.039,0.031 0.059,0.045c0.2,0.13 0.433,0.207 0.661,0.272c0.337,0.096 0.684,0.16 1.032,0.21c0.672,0.095 1.352,0.133 2.031,0.133c0.649,0 1.301,-0.035 1.945,-0.121c0.435,-0.059 0.874,-0.138 1.292,-0.276c0.125,-0.041 0.248,-0.088 0.365,-0.148c0.063,-0.032 0.128,-0.067 0.18,-0.115c-0.018,-0.016 -0.039,-0.03 -0.059,-0.045c-0.15,-0.097 -0.318,-0.162 -0.486,-0.218c-0.213,-0.07 -0.431,-0.123 -0.65,-0.168c-0.781,-0.159 -1.581,-0.215 -2.377,-0.227c-0.105,-0.001 -0.211,-0.002 -0.316,-0.001Z" style="fill:#fff;fill-rule:nonzero;"/></svg>