<?xml version="1.0" standalone="no"?><!DOCTYPE svg PUBLIC "-//W3C//DTD SVG 1.1//EN" "http://www.w3.org/Graphics/SVG/1.1/DTD/svg11.dtd"><svg width="100%" height="100%" viewBox="0 0 21 38" version="1.1" xmlns="http://www.w3.org/2000/svg" xmlns:xlink="http://www.w3.org/1999/xlink" xml:space="preserve" style="fill-rule:evenodd;clip-rule:evenodd;stroke-linejoin:round;stroke-miterlimit:1.41421;"><g><path d="M6.535,22.64l10.082,3.319c0.989,-1.253 -4.011,-3.003 1.989,-14.753c0,0 4.625,-9.125 1,-11c-3.626,-1.875 -5.5,9.692 -5.5,9.692c-0.625,2.932 -1.642,10.801 -7.571,12.742Z" style="fill:#1d1d1b;fill-rule:nonzero;"/><path d="M5.862,23.789l11.115,3.92c0,0 -2.645,7.953 -3.317,8.703c-0.673,0.75 -1.808,1 -2.241,1.125c-0.432,0.124 -7.182,-2 -7.182,-2l1.125,-2.11l-2.625,1.113l-2.737,-1.113c0,0 2.112,0.118 3.362,-2.761c1.25,-2.879 2.5,-6.877 2.5,-6.877Z" style="fill:#1d1d1b;fill-rule:nonzero;"/></g></svg>