<?xml version="1.0" standalone="no"?><!DOCTYPE svg PUBLIC "-//W3C//DTD SVG 1.1//EN" "http://www.w3.org/Graphics/SVG/1.1/DTD/svg11.dtd"><svg width="100%" height="100%" viewBox="0 0 29 29" version="1.1" xmlns="http://www.w3.org/2000/svg" xmlns:xlink="http://www.w3.org/1999/xlink" xml:space="preserve" style="fill-rule:evenodd;clip-rule:evenodd;stroke-linejoin:round;stroke-miterlimit:1.41421;"><path d="M13.514,16.909l-6.432,-3.714l-6.432,3.714l0,7.426l6.432,3.714l6.432,-3.714l0,-7.426Z" style="fill:#000;fill-rule:nonzero;"/><path d="M13.889,16.692l0,7.86l-6.807,3.93l-6.807,-3.93l0,-7.86l6.807,-3.93c2.269,1.31 4.538,2.62 6.807,3.93ZM1.025,17.125l0,6.994l6.057,3.497l6.057,-3.497l0,-6.994l-6.057,-3.497c-2.019,1.166 -4.038,2.331 -6.057,3.497Z" style="fill:#1d1d1b;fill-rule:nonzero;"/><path d="M27.846,17.149l-6.431,-3.713l-6.433,3.713l0,7.426l6.433,3.714l6.431,-3.714l0,-7.426Z" style="fill:#1d1d1b;fill-rule:nonzero;"/><path d="M28.221,16.932l0,7.86l-6.806,3.93l-6.808,-3.93l0,-7.86l6.808,-3.929c2.269,1.309 4.537,2.619 6.806,3.929ZM15.357,17.365l0,6.994l6.058,3.497l6.056,-3.497l0,-6.994l-6.056,-3.496c-2.019,1.165 -4.039,2.331 -6.058,3.496Z" style="fill:#1d1d1b;fill-rule:nonzero;"/><path d="M20.936,4.364l-6.432,-3.714l-6.432,3.714l0,7.426l6.432,3.714l6.432,-3.714l0,-7.426Z" style="fill:#000;fill-rule:nonzero;"/><path d="M21.311,4.147l0,7.86l-6.807,3.93l-6.807,-3.93l0,-7.86l6.807,-3.931c2.269,1.311 4.538,2.621 6.807,3.931ZM8.447,4.58l0,6.994l6.057,3.497l6.057,-3.497l0,-6.994l-6.057,-3.497c-2.019,1.165 -4.038,2.331 -6.057,3.497Z" style="fill:#1d1d1b;fill-rule:nonzero;"/><path d="M15.545,2.501c0.043,0.005 0.086,0.011 0.129,0.022c0.056,0.016 0.109,0.038 0.162,0.064l3.734,2.005l0.394,0.691l-0.177,4.374c-0.011,0.148 -0.054,0.287 -0.14,0.407c-0.155,0.216 -0.42,0.336 -0.684,0.309c-0.072,-0.007 -0.143,-0.025 -0.211,-0.052c-0.08,-0.033 -0.155,-0.081 -0.22,-0.139c-0.075,-0.069 -0.136,-0.153 -0.178,-0.246c-0.049,-0.108 -0.067,-0.222 -0.066,-0.339l0.159,-3.905l-3.321,-1.783l-0.038,-0.022c-0.098,-0.064 -0.182,-0.143 -0.245,-0.244c-0.038,-0.062 -0.067,-0.129 -0.086,-0.199c-0.082,-0.301 0.037,-0.63 0.292,-0.809c0.122,-0.086 0.261,-0.128 0.409,-0.136c0.043,0 0.043,0 0.087,0.002Z" style="fill:#fff;fill-rule:nonzero;"/><path d="M7.668,15.61c0.044,0.005 0.086,0.011 0.129,0.023c0.057,0.015 0.11,0.037 0.162,0.064l3.735,2.004l0.395,0.692l-0.178,4.374c-0.008,0.117 -0.036,0.229 -0.093,0.333c-0.05,0.089 -0.117,0.168 -0.198,0.23c-0.069,0.053 -0.148,0.094 -0.231,0.121c-0.253,0.08 -0.536,0.018 -0.733,-0.16c-0.053,-0.049 -0.1,-0.106 -0.137,-0.168c-0.077,-0.128 -0.109,-0.27 -0.107,-0.417l0.159,-3.905l-3.321,-1.783l-0.038,-0.021c-0.099,-0.065 -0.183,-0.144 -0.245,-0.245c-0.165,-0.265 -0.145,-0.614 0.048,-0.859c0.045,-0.057 0.098,-0.107 0.158,-0.149c0.121,-0.085 0.261,-0.127 0.408,-0.136c0.044,0 0.043,0 0.087,0.002Z" style="fill:#fff;fill-rule:nonzero;"/><path d="M22.278,15.61c0.044,0.005 0.087,0.011 0.129,0.023c0.057,0.015 0.11,0.038 0.162,0.064l3.734,2.004l0.395,0.692l-0.179,4.374c-0.01,0.147 -0.053,0.286 -0.14,0.407c-0.154,0.215 -0.419,0.335 -0.683,0.309c-0.072,-0.008 -0.144,-0.025 -0.211,-0.053c-0.081,-0.033 -0.156,-0.081 -0.22,-0.139c-0.075,-0.069 -0.136,-0.153 -0.178,-0.246c-0.049,-0.108 -0.068,-0.222 -0.066,-0.339l0.159,-3.905l-3.32,-1.783l-0.038,-0.021c-0.124,-0.081 -0.224,-0.187 -0.287,-0.321c-0.031,-0.066 -0.052,-0.136 -0.063,-0.208c-0.045,-0.309 0.111,-0.621 0.385,-0.77c0.104,-0.056 0.217,-0.083 0.334,-0.09c0.044,0 0.043,0 0.087,0.002Z" style="fill:#fff;fill-rule:nonzero;"/></svg>