<svg viewBox="0 0 600 700" xmlns="http://www.w3.org/2000/svg" fill-rule="evenodd" clip-rule="evenodd" stroke-linecap="round" stroke-linejoin="round" stroke-miterlimit="1.414"><path d="M281.338 7.627h-191.7c-13.02 0-23.573 10.546-23.573 23.557v.07c.004.992.382 1.94 1.063 2.67l6.026 6.56 5.572 6.33 5.138 6.11 4.702 5.893 4.29 5.678 3.88 5.474 3.486 5.28 1.6 2.57 1.503 2.52 1.412 2.484 1.317 2.427 1.23 2.395 1.14 2.34 1.05 2.306.966 2.26.88 2.224.802 2.18.71 2.136.64 2.108.55 2.07.477 2.035.4 1.997.326 1.965.134.97.12.96.1.953.08.938.065.938.042.93.03.924.013.915-.01.906-.023.898-.04.89-.058.882-.07.883-.087.867-.108.87-.124.853-.136.85-.15.844-.166.834-.186.84-.2.826-.207.818-.23.814-.237.81-.26.806-.268.795-.283.787-.297.79-.636 1.56-.685 1.534-.74 1.512-.79 1.502-.84 1.48-.885 1.462-.932 1.45-.975 1.427-1.017 1.427-1.06 1.407-1.098 1.39-1.14 1.382-1.178 1.368-1.213 1.368-2.53 2.694-2.653 2.675-2.774 2.645-5.856 5.275-25.855 21.63-6.632 5.833-3.273 3.017-3.24 3.09-3.19 3.184-3.127 3.267-3.055 3.375-2.97 3.476-2.88 3.577-1.397 1.838-1.37 1.866-1.34 1.902-1.31 1.932-1.28 1.964-1.244 2.004-1.21 2.036-1.177 2.065-1.134 2.108-1.1 2.148-1.06 2.186-1.013 2.222-.97 2.267-.93 2.307-.88 2.345-.836 2.385-.785 2.444-.738 2.472-.685 2.528-.632 2.57-.57 2.61-.523 2.672-.466 2.713-.407 2.768-.34 2.815-.287 2.867-.222 2.926-.16 2.984-.097 3.03-.042 3.078.02 3.13.08 3.177.328 6.49.55 6.656.76 6.822.97 6.985 1.17 7.125 1.36 7.262 1.545 7.392 1.718 7.5 1.89 7.61 4.247 15.507 4.825 15.823 5.347 16.067 5.806 16.224 6.205 16.315 6.544 16.33 13.85 32.39L78.92 522.06l14.594 30.068 14.228 27.998 25.422 47.346 18.118 31.777 5.096 8.53 1.346 2.164.2.313.146.208.052.07.036.05c.03 13.025 10.583 23.574 23.605 23.574h100.29" fill="none" stroke-width="6.52" stroke="#000"/><path d="M378.212 538.74c0 2.494-2.498 4.618-7.49 6.374-4.99 1.756-11.004 2.636-18.033 2.636-9.17 0-20.405-1.4-33.7-4.2-6.47 3.056-12.42 7.7-17.845 13.934-5.425 6.236-11.323 15.208-17.688 26.916 3.156.508 5.778.916 7.868 1.222 2.852-6.568 6.928-9.848 12.226-9.848 3.617 0 5.426 1.4 5.426 4.2 0 2.24-1.21 4.058-3.628 5.46-2.42 1.4-5.592 2.1-9.514 2.1h-1.53c-.153.202-.788 1.554-1.91 4.046-1.275 2.952-3.107 5.46-5.504 7.523-2.39 2.062-4.633 3.09-6.723 3.09-.714 0-1.07-.152-1.07-.458 0-.254.255-.46.764-.612 3.516-1.07 7.08-5.776 10.695-14.126-1.477-.153-3.616-.46-6.416-.916l-1.452-.305c-.714 1.274-1.758 3.157-3.134 5.65-4.382 7.837-7.935 13.438-10.66 16.796-2.727 3.36-6.408 6.67-11.044 9.928-12.328 8.653-25.066 12.98-38.21 12.98-7.743 0-14.084-1.617-19.027-4.85-4.943-3.23-7.41-7.394-7.41-12.482 0-2.545.75-4.72 2.252-6.53 1.503-1.807 3.3-2.71 5.386-2.71 3.363 0 5.045 1.704 5.045 5.115 0 1.578-.52 2.94-1.565 4.086-1.043 1.147-2.305 1.717-3.782 1.717-2.497 0-3.743-1.195-3.743-3.59.153-1.22 0-1.83-.46-1.83-.968 0-1.45 1.348-1.45 4.045 0 4.275 2.23 7.93 6.687 10.957 4.457 3.026 9.846 4.544 16.162 4.544 9.934 0 18.874-2.965 26.823-8.895 7.95-5.93 16.66-16.175 26.136-30.734.815-1.168 2.01-2.977 3.593-5.42h-1.45c-5.707 0-9.655 2.19-11.846 6.568-.255.713-.535 1.068-.842 1.068-.407 0-.613-.202-.613-.612 0-2.036 1.438-3.958 4.317-5.766 2.88-1.808 5.92-2.71 9.133-2.71h2.217c13.345-20.16 27.33-33.494 41.948-40.01-3.922-.867-7.997-1.857-12.226-2.978-13.655-3.564-24.248-5.346-31.786-5.346-1.53 0-2.98.052-4.356.153 2.19 4.226 3.287 8.985 3.287 14.28 0 11.095-4.344 21.556-13.03 31.382-8.69 9.824-17.972 14.734-27.854 14.734-4.176 0-7.564-1.31-10.163-3.932-2.598-2.623-3.896-6.043-3.896-10.27 0-9.62 5.005-19.354 15.014-29.205 10.01-9.852 21.18-16.074 33.512-18.667-3.873-5.754-9.807-8.627-17.805-8.627-13.094 0-24.936 6.362-35.532 19.087-.867.867-1.35 1.297-1.45 1.297-.308 0-.51-.18-.614-.534 0-.916 2.14-3.36 6.42-7.33 9.883-9.16 20.098-13.745 30.642-13.745 9.374 0 16.175 3.183 20.404 9.545 5.4-1.374 11.692-2.062 18.87-2.062 4.536 0 8.713.356 12.534 1.07 3.82.713 13.016 2.798 27.587 6.26 11.36-4.377 22.007-6.567 31.942-6.567 5.858 0 10.582.65 14.175 1.95 3.593 1.298 5.387 3.02 5.387 5.156zm-108.967 6.87c0-3.41-.84-6.848-2.52-10.308-11.718 1.476-22.696 7.063-32.937 16.76-10.24 9.7-15.36 19.333-15.36 28.9 0 3.565 1.135 6.592 3.4 9.087 2.267 2.495 5.084 3.74 8.445 3.74 8.865 0 17.577-5.308 26.136-15.922 8.557-10.61 12.835-21.364 12.835-32.26zm38.36 34.513c0-2.19-1.25-3.284-3.744-3.284-3.312 0-6.138 2.62-8.483 7.863l-.613 1.375h1.91c3.16 0 5.772-.56 7.832-1.68 2.06-1.122 3.098-2.545 3.098-4.275zm69.156-41.23c0-1.578-1.67-2.94-5.004-4.086-3.336-1.147-7.35-1.717-12.034-1.717-11.105 0-21.294 1.935-30.567 5.802l10.24 2.29c8.56 1.984 16.43 2.978 23.613 2.978 3.668 0 6.876-.535 9.628-1.603 2.752-1.07 4.125-2.29 4.125-3.665z" fill-rule="nonzero"/><path d="M341.763 549.81c-21.395 35.58-33.866 56.502-37.407 62.764-3.54 6.26-5.31 10.41-5.31 12.445 0 2.29.968 3.436 2.908 3.436 4.284 0 12.14-8.08 23.57-24.242.253-.508.56-.762.915-.762.2.052.306.202.306.46 0 .306-.255.716-.763 1.224l-3.293 4.512c-9.638 13.305-16.755 19.958-21.343 19.958-2.194 0-3.994-.828-5.393-2.483-1.405-1.655-2.106-3.753-2.106-6.3 0-2.8.65-5.51 1.95-8.132 1.3-2.62 5.72-10.193 13.257-22.716 9.22-15.32 16.99-28.606 23.305-39.856 1.53.408 2.88.613 4.05.613 1.94-.003 3.723-.31 5.353-.92z" fill-rule="nonzero"/><path d="M371.984 603.83c0 .81-1.503 2.717-4.512 5.708-4.487 4.466-8.618 6.7-12.39 6.7-1.578 0-2.983-.305-4.206-.915-6.726 9.52-13.05 14.28-18.962 14.28-3.06 0-5.674-1.26-7.838-3.78-2.17-2.518-3.25-5.535-3.25-9.047 0-7.838 5.144-15.4 15.434-22.677 7.235-5.142 13.195-7.712 17.88-7.712 4.382 0 6.573 2.342 6.573 7.023 0 5.856-3.08 12.906-9.247 21.15 1.018.614 2.165.917 3.44.917 2.292 0 4.97-1.066 8.037-3.196 3.062-2.127 5.566-4.69 7.51-7.685.563-.71.974-1.065 1.228-1.065.203-.003.304.098.304.3zm-12.416-10.27c0-4.123-1.858-6.182-5.578-6.182-4.636 0-10.29 4.427-16.964 13.285-6.674 8.858-10.01 16.315-10.01 22.372 0 3.512 1.683 5.268 5.044 5.268 5.504 0 11.513-4.532 18.034-13.592-1.477-1.628-2.217-3.31-2.217-5.04 0-2.494.994-5.065 2.98-7.71 1.985-2.645 3.922-3.97 5.806-3.97.816 0 1.376.507 1.683 1.527.815-1.783 1.222-3.767 1.222-5.956z" fill-rule="nonzero"/><path d="M415.693 603.908c0 .41-1.532 2.27-4.59 5.594-3.88 4.287-7.532 6.434-10.95 6.434-3.875 0-5.815-2.24-5.815-6.718 0-1.427.306-3.23.916-5.42-3.21 2.798-5.82 5.573-7.832 8.323-2.01 2.75-5.49 8.348-10.43 16.798-2.7-.202-4.278-.306-4.737-.306-.202 0-1.758.1-4.663.306l12.533-20.31c6.267-10.18 9.4-16.49 9.4-18.933 0-1.427-.587-2.137-1.76-2.137-2.86 0-8.04 5.486-15.546 16.455-.464.713-.872 1.068-1.227 1.068-.202-.05-.307-.2-.307-.458.053-.254.154-.46.307-.613l1.38-1.916c7.857-10.454 13.188-15.683 15.995-15.683 4.082 0 6.123 2.623 6.123 7.865 0 3.92-2.09 9.112-6.266 15.576 2.648-3.055 5.17-5.547 7.564-7.482 1.937-4.532 4.343-8.324 7.222-11.377 2.88-3.05 5.465-4.58 7.757-4.58 1.578 0 2.37.688 2.37 2.063 0 2.443-3.54 5.93-10.622 10.46-1.122.714-2.8 1.757-5.044 3.132l-.915.762c-.714 2.342-1.07 4.274-1.07 5.802 0 4.273 1.608 6.414 4.822 6.414 3.98 0 8.32-3.294 13.016-9.88 1.017-1.125 1.66-1.69 1.914-1.69.303-.005.456.148.456.454z" fill-rule="nonzero"/><path d="M443.78 586.384l-.614 1.147h-10.01l-17.042 29.093c-2.09 3.512-3.133 6.314-3.133 8.4 0 2.29 1.197 3.436 3.6 3.436 4.643 0 12.47-8.08 23.49-24.242.357-.51.663-.763.918-.763.306 0 .46.153.46.46-.053.153-.307.56-.764 1.225l-3.29 4.512c-9.588 13.304-16.804 19.957-21.652 19.957-2.396 0-4.398-.868-6.005-2.598-1.608-1.73-2.41-3.893-2.41-6.49 0-3.055 1.35-6.87 4.05-11.454l12.84-21.53h-7.797l.763-1.147h7.643l8.94-14.812c1.53.407 2.98.612 4.356.612 1.428 0 2.905-.202 4.43-.612l-8.786 14.813h10.013v-.006z" fill-rule="nonzero"/><path d="M485.003 603.908c0 .41-1.532 2.27-4.59 5.594-3.88 4.287-7.532 6.434-10.95 6.434-3.875 0-5.815-2.24-5.815-6.718 0-1.427.306-3.23.916-5.42-3.208 2.798-5.82 5.573-7.832 8.323-2.01 2.75-5.49 8.348-10.43 16.798-2.7-.202-4.278-.306-4.737-.306-.202 0-1.758.1-4.663.306l12.533-20.31c6.267-10.18 9.4-16.49 9.4-18.933 0-1.427-.587-2.137-1.76-2.137-2.86 0-8.04 5.486-15.546 16.455-.464.713-.872 1.068-1.227 1.068-.202-.05-.307-.2-.307-.458.053-.254.154-.46.307-.613l1.38-1.916c7.857-10.454 13.188-15.683 15.995-15.683 4.082 0 6.123 2.623 6.123 7.865 0 3.92-2.09 9.112-6.266 15.576 2.648-3.055 5.17-5.547 7.564-7.482 1.937-4.532 4.343-8.324 7.222-11.377 2.88-3.05 5.465-4.58 7.757-4.58 1.578 0 2.37.688 2.37 2.063 0 2.443-3.54 5.93-10.622 10.46-1.122.714-2.8 1.757-5.044 3.132l-.915.762c-.714 2.342-1.07 4.274-1.07 5.802 0 4.273 1.608 6.414 4.822 6.414 3.98 0 8.32-3.294 13.016-9.88 1.017-1.125 1.66-1.69 1.914-1.69.303-.005.456.148.456.454z" fill-rule="nonzero"/><path d="M538.647 603.908c0 1.072-3.723 6.017-11.17 14.836-6.02 7.24-10.763 10.858-14.23 10.858-2.346 0-4.26-.88-5.737-2.635-1.48-1.756-2.22-3.958-2.22-6.604 0-2.75.815-5.727 2.445-8.933-5.093 7.128-8.992 11.937-11.692 14.432-2.7 2.496-5.324 3.74-7.87 3.74-2.7 0-4.966-1.156-6.802-3.472-1.834-2.317-2.75-5.23-2.75-8.744 0-9.774 6.902-18.427 20.71-25.962 6.06-3.36 10.95-5.04 14.672-5.04 3.16 0 4.737 1.528 4.737 4.58 0 .867-.203 2.01-.614 3.438l3.896-7.405c1.53.355 2.88.534 4.05.534 1.375 0 3.16-.178 5.35-.533l-13.524 22.37c-4.69 7.84-7.03 13.006-7.03 15.502 0 2.39.995 3.59 2.984 3.59 2.04 0 5.307-2.334 9.797-6.996 4.49-4.668 9.053-10.412 13.696-17.246.307-.51.587-.763.84-.763.308-.006.46.147.46.453zm-21.053-12.637c0-2.494-1.147-3.74-3.44-3.74-4.688 0-10.837 4.582-18.453 13.746-7.616 9.164-11.424 16.57-11.424 22.218 0 3.31 1.477 4.962 4.43 4.962 3.516 0 9.603-5.83 18.266-17.485 7.082-9.57 10.622-16.135 10.622-19.7z" fill-rule="nonzero"/><path d="M564.936 603.908c-.052.153-.307.56-.763 1.225l-3.29 4.512c-9.59 13.305-16.912 19.957-21.956 19.957-2.396 0-4.398-.853-6.005-2.557-1.608-1.704-2.41-3.83-2.41-6.375 0-2.952 1.758-7.432 5.272-13.44l11.92-20.233c1.58.355 2.827.534 3.743.534 1.376 0 3.313-.178 5.807-.533l-17.345 28.48c-2.5 4.124-3.744 7.304-3.744 9.545 0 2.29 1.196 3.437 3.6 3.437 4.538 0 12.523-8.08 23.95-24.242.255-.51.51-.763.763-.763.303-.006.456.147.456.453zm-1.11-31.575c0 1.782-.75 3.45-2.252 5-1.503 1.552-3.146 2.33-4.93 2.33-2.292 0-3.44-1.146-3.44-3.437 0-1.68.79-3.297 2.37-4.847 1.582-1.552 3.235-2.33 4.967-2.33 2.192.003 3.287 1.097 3.287 3.283z" fill-rule="nonzero"/><path d="M593.246 586.384l-.613 1.147h-10.01l-17.042 29.093c-2.09 3.512-3.132 6.314-3.132 8.4 0 2.29 1.197 3.436 3.6 3.436 4.642 0 12.47-8.08 23.49-24.242.356-.51.663-.763.917-.763.307 0 .46.153.46.46-.052.153-.307.56-.763 1.225l-3.29 4.512c-9.59 13.304-16.804 19.957-21.652 19.957-2.397 0-4.4-.868-6.006-2.598-1.607-1.73-2.41-3.893-2.41-6.49 0-3.055 1.35-6.87 4.05-11.454l12.84-21.53h-7.796l.763-1.147h7.643l8.94-14.812c1.53.407 2.98.612 4.356.612 1.427 0 2.904-.202 4.43-.612l-8.787 14.813h10.013v-.006z" fill-rule="nonzero"/></svg>