<svg viewBox="0 0 301 81" xmlns="http://www.w3.org/2000/svg" fill-rule="evenodd" clip-rule="evenodd" stroke-linejoin="round" stroke-miterlimit="1.414"><path d="M138.758 11.513c0 1.87-1.874 3.464-5.618 4.78-3.743 1.318-8.253 1.978-13.525 1.978-6.876 0-15.303-1.05-25.275-3.148-4.85 2.29-9.314 5.774-13.383 10.45C76.89 30.25 72.465 36.978 67.69 45.76c2.368.38 4.335.686 5.902.915 2.14-4.926 5.196-7.386 9.17-7.386 2.712 0 4.07 1.05 4.07 3.15 0 1.68-.908 3.043-2.722 4.094-1.815 1.05-4.194 1.575-7.136 1.575h-1.147c-.115.15-.59 1.165-1.433 3.034-.956 2.214-2.33 4.096-4.128 5.642-1.792 1.547-3.475 2.318-5.042 2.318-.536 0-.802-.114-.802-.344 0-.19.19-.344.572-.46 2.636-.8 5.31-4.33 8.02-10.593-1.107-.115-2.71-.345-4.81-.687l-1.09-.23c-.535.956-1.318 2.368-2.35 4.237-3.287 5.878-5.95 10.08-7.996 12.598-2.044 2.52-4.805 5-8.282 7.445-9.246 6.49-18.8 9.734-28.657 9.734-5.81 0-10.565-1.212-14.272-3.636C1.85 74.745 0 71.622 0 67.806c0-1.91.563-3.54 1.69-4.897 1.127-1.357 2.475-2.034 4.04-2.034 2.52 0 3.782 1.278 3.782 3.836 0 1.183-.39 2.204-1.173 3.064-.784.86-1.73 1.288-2.838 1.288-1.873 0-2.807-.896-2.807-2.693.115-.914 0-1.372-.345-1.372-.726 0-1.088 1.012-1.088 3.035 0 3.206 1.673 5.947 5.016 8.217 3.342 2.27 7.384 3.408 12.12 3.408 7.452 0 14.157-2.223 20.118-6.67 5.962-4.447 12.496-12.13 19.602-23.05.612-.878 1.51-2.234 2.695-4.067h-1.088c-4.28 0-7.24 1.643-8.884 4.927-.19.535-.4.8-.63.8-.306 0-.46-.15-.46-.458 0-1.528 1.078-2.97 3.238-4.325 2.16-1.356 4.44-2.033 6.85-2.033H61.5c10.01-15.12 20.497-25.12 31.46-30.007-2.94-.65-5.997-1.393-9.17-2.234-10.24-2.67-18.184-4.008-23.838-4.008-1.147 0-2.235.04-3.267.115 1.643 3.17 2.465 6.738 2.465 10.71 0 8.32-3.257 16.167-9.772 23.536-6.516 7.37-13.478 11.052-20.89 11.052-3.132 0-5.673-.983-7.622-2.95-1.95-1.967-2.922-4.532-2.922-7.7 0-7.216 3.754-14.517 11.26-21.906C36.712 14 45.09 9.333 54.338 7.39 51.433 3.072 46.982.92 40.984.92c-9.82 0-18.702 4.77-26.65 14.314-.65.65-1.012.973-1.087.973-.23 0-.382-.134-.46-.4 0-.688 1.604-2.52 4.815-5.498C25.012 3.437 32.675 0 40.582 0c7.03 0 12.132 2.387 15.304 7.16 4.05-1.032 8.77-1.548 14.153-1.548 3.4 0 6.533.266 9.4.802 2.864.535 9.76 2.098 20.69 4.696 8.518-3.284 16.504-4.926 23.955-4.926 4.395 0 7.938.486 10.632 1.46 2.695.976 4.04 2.266 4.04 3.87zm-81.726 5.153c0-2.558-.63-5.136-1.89-7.73-8.788 1.106-17.022 5.297-24.702 12.57-7.68 7.274-11.52 14.5-11.52 21.675 0 2.674.85 4.944 2.55 6.816 1.7 1.872 3.813 2.805 6.333 2.805 6.65 0 13.183-3.98 19.602-11.94 6.42-7.958 9.627-16.023 9.627-24.194zm28.77 25.885c0-1.64-.937-2.462-2.808-2.462-2.484 0-4.604 1.967-6.363 5.898l-.458 1.03h1.433c2.37 0 4.328-.42 5.873-1.26 1.546-.84 2.324-1.907 2.324-3.205zM137.67 11.63c0-1.183-1.253-2.204-3.754-3.064-2.502-.86-5.512-1.288-9.026-1.288-8.33 0-15.97 1.452-22.925 4.352l7.68 1.717c6.42 1.488 12.322 2.234 17.71 2.234 2.75 0 5.157-.402 7.22-1.203 2.065-.802 3.094-1.718 3.094-2.75z" fill-rule="nonzero"/><path d="M111.42 19.816C95.376 46.502 86.02 62.193 83.367 66.89c-2.655 4.695-3.984 7.806-3.984 9.333 0 1.718.727 2.578 2.182 2.578 3.213 0 9.106-6.06 17.677-18.18.19-.382.422-.572.688-.572.15.04.23.15.23.344 0 .23-.19.538-.572.92l-2.47 3.383c-7.228 9.98-12.566 14.968-16.007 14.968-1.647 0-2.997-.62-4.046-1.862-1.054-1.24-1.58-2.814-1.58-4.724 0-2.1.487-4.132 1.463-6.1.976-1.965 4.29-7.644 9.943-17.037 6.915-11.49 12.742-21.455 17.48-29.893 1.145.306 2.158.46 3.036.46 1.455-.003 2.792-.232 4.015-.69z" fill-rule="nonzero"/><path d="M134.087 60.33c0 .61-1.128 2.04-3.384 4.282-3.366 3.35-6.464 5.026-9.293 5.026-1.183 0-2.237-.23-3.154-.687-5.045 7.14-9.79 10.71-14.222 10.71-2.294 0-4.255-.945-5.878-2.834-1.627-1.888-2.44-4.15-2.44-6.785 0-5.878 3.86-11.548 11.578-17.007 5.426-3.856 9.896-5.783 13.41-5.783 3.286 0 4.93 1.756 4.93 5.267 0 4.39-2.31 9.68-6.936 15.863.763.46 1.624.687 2.58.687 1.72 0 3.727-.8 6.028-2.397 2.296-1.596 4.174-3.52 5.632-5.765.423-.532.73-.8.92-.8.153 0 .228.075.228.226zm-9.313-7.7c0-3.093-1.393-4.638-4.183-4.638-3.476 0-7.716 3.32-12.722 9.964-5.005 6.644-7.507 12.236-7.507 16.78 0 2.633 1.263 3.95 3.784 3.95 4.128 0 8.634-3.4 13.525-10.194-1.11-1.222-1.664-2.482-1.664-3.78 0-1.87.746-3.8 2.235-5.783 1.49-1.985 2.943-2.98 4.356-2.98.612 0 1.032.382 1.262 1.147.61-1.338.916-2.826.916-4.467z" fill-rule="nonzero"/><path d="M166.868 60.39c0 .308-1.15 1.703-3.442 4.195-2.91 3.216-5.65 4.826-8.212 4.826-2.907 0-4.362-1.68-4.362-5.038 0-1.07.23-2.423.687-4.065-2.408 2.1-4.366 4.18-5.875 6.243-1.508 2.062-4.117 6.26-7.822 12.597-2.025-.15-3.21-.23-3.553-.23-.152 0-1.32.077-3.497.23l9.4-15.23c4.7-7.637 7.05-12.37 7.05-14.202 0-1.07-.44-1.603-1.32-1.603-2.146 0-6.03 4.115-11.66 12.342-.347.534-.653.8-.92.8-.15-.038-.23-.15-.23-.344.04-.19.115-.344.23-.46l1.035-1.436c5.893-7.84 9.89-11.762 11.996-11.762 3.062 0 4.593 1.967 4.593 5.898 0 2.94-1.568 6.834-4.7 11.682 1.985-2.292 3.878-4.16 5.672-5.612 1.452-3.4 3.257-6.243 5.416-8.533 2.16-2.29 4.1-3.435 5.818-3.435 1.183 0 1.777.515 1.777 1.547 0 1.83-2.655 4.445-7.965 7.845-.842.534-2.1 1.316-3.783 2.348l-.687.57c-.536 1.758-.803 3.207-.803 4.353 0 3.205 1.206 4.81 3.617 4.81 2.985 0 6.24-2.47 9.76-7.41.764-.843 1.246-1.266 1.436-1.266.228-.004.342.11.342.34z" fill-rule="nonzero"/><path d="M187.933 47.247l-.46.86h-7.507l-12.782 21.82c-1.567 2.633-2.35 4.735-2.35 6.298 0 1.718.897 2.578 2.7 2.578 3.482 0 9.353-6.06 17.618-18.18.267-.382.496-.573.688-.573.23 0 .344.115.344.345-.04.115-.23.42-.572.92l-2.467 3.383c-7.192 9.978-12.604 14.968-16.24 14.968-1.797 0-3.298-.65-4.504-1.948-1.205-1.297-1.806-2.92-1.806-4.867 0-2.29 1.012-5.152 3.037-8.59l9.63-16.148h-5.846l.572-.86h5.732l6.705-11.11c1.147.306 2.235.46 3.267.46 1.07 0 2.18-.152 3.323-.46l-6.59 11.11h7.51v-.005z" fill-rule="nonzero"/><path d="M218.85 60.39c0 .308-1.148 1.703-3.442 4.195-2.91 3.216-5.65 4.826-8.21 4.826-2.908 0-4.363-1.68-4.363-5.038 0-1.07.23-2.423.687-4.065-2.406 2.1-4.365 4.18-5.874 6.243-1.51 2.062-4.118 6.26-7.823 12.597-2.024-.15-3.208-.23-3.553-.23-.15 0-1.318.077-3.497.23l9.4-15.23c4.7-7.637 7.05-12.37 7.05-14.202 0-1.07-.44-1.603-1.32-1.603-2.145 0-6.03 4.115-11.66 12.342-.347.534-.653.8-.92.8-.15-.038-.23-.15-.23-.344.04-.19.116-.344.23-.46l1.035-1.436c5.894-7.84 9.892-11.762 11.997-11.762 3.062 0 4.592 1.967 4.592 5.898 0 2.94-1.568 6.834-4.7 11.682 1.985-2.292 3.877-4.16 5.672-5.612 1.453-3.4 3.257-6.243 5.417-8.533 2.158-2.29 4.097-3.435 5.816-3.435 1.184 0 1.778.515 1.778 1.547 0 1.83-2.656 4.445-7.967 7.845-.84.534-2.1 1.316-3.783 2.348l-.687.57c-.535 1.758-.802 3.207-.802 4.353 0 3.205 1.206 4.81 3.616 4.81 2.987 0 6.242-2.47 9.763-7.41.763-.843 1.245-1.266 1.436-1.266.226-.004.34.11.34.34z" fill-rule="nonzero"/><path d="M259.084 60.39c0 .804-2.792 4.513-8.378 11.127-4.514 5.43-8.072 8.143-10.67 8.143-1.762 0-3.197-.66-4.305-1.976-1.11-1.317-1.664-2.968-1.664-4.953 0-2.06.61-4.294 1.834-6.7-3.82 5.347-6.744 8.954-8.77 10.825-2.024 1.872-3.992 2.805-5.902 2.805-2.025 0-3.724-.867-5.1-2.604-1.377-1.737-2.065-3.92-2.065-6.558 0-7.33 5.177-13.82 15.533-19.47 4.546-2.52 8.213-3.78 11.004-3.78 2.37 0 3.553 1.145 3.553 3.435 0 .65-.152 1.507-.46 2.577l2.922-5.553c1.147.266 2.16.4 3.037.4 1.032 0 2.37-.134 4.013-.4l-10.143 16.778c-3.517 5.878-5.273 9.754-5.273 11.626 0 1.794.746 2.693 2.237 2.693 1.53 0 3.98-1.75 7.348-5.246 3.368-3.5 6.79-7.81 10.273-12.935.23-.38.44-.572.63-.572.23-.004.346.11.346.34zm-15.79-9.478c0-1.87-.86-2.805-2.58-2.805-3.516 0-8.128 3.436-13.84 10.31-5.712 6.872-8.568 12.426-8.568 16.662 0 2.482 1.107 3.72 3.323 3.72 2.635 0 7.2-4.37 13.698-13.113 5.31-7.178 7.966-12.102 7.966-14.775z" fill-rule="nonzero"/><path d="M278.8 60.39c-.038.115-.23.42-.572.92l-2.467 3.383c-7.19 9.978-12.683 14.967-16.466 14.967-1.797 0-3.3-.64-4.504-1.917-1.206-1.278-1.808-2.874-1.808-4.782 0-2.213 1.32-5.573 3.955-10.078l8.94-15.175c1.184.266 2.12.4 2.807.4 1.032 0 2.485-.134 4.355-.4l-13.01 21.36c-1.873 3.093-2.807 5.478-2.807 7.158 0 1.718.897 2.578 2.7 2.578 3.404 0 9.392-6.06 17.963-18.18.19-.382.38-.573.572-.573.228-.004.343.11.343.34zm-.83-23.68c0 1.335-.563 2.586-1.69 3.75-1.127 1.163-2.36 1.746-3.697 1.746-1.72 0-2.58-.86-2.58-2.578 0-1.26.592-2.472 1.778-3.635 1.186-1.163 2.426-1.747 3.725-1.747 1.643.003 2.465.823 2.465 2.463z" fill-rule="nonzero"/><path d="M300.033 47.247l-.46.86h-7.507l-12.782 21.82c-1.567 2.633-2.35 4.735-2.35 6.298 0 1.718.898 2.578 2.7 2.578 3.482 0 9.354-6.06 17.62-18.18.265-.382.495-.573.686-.573.23 0 .345.115.345.345-.04.115-.23.42-.573.92l-2.467 3.383c-7.192 9.978-12.603 14.968-16.24 14.968-1.797 0-3.298-.65-4.504-1.948-1.204-1.297-1.805-2.92-1.805-4.867 0-2.29 1.01-5.152 3.036-8.59l9.63-16.148h-5.846l.573-.86h5.73l6.706-11.11c1.147.306 2.235.46 3.267.46 1.07 0 2.18-.152 3.323-.46l-6.59 11.11h7.51v-.005z" fill-rule="nonzero"/></svg>