<svg viewBox="0 0 21 38" xmlns="http://www.w3.org/2000/svg" fill-rule="evenodd" clip-rule="evenodd" stroke-linejoin="round" stroke-miterlimit="1.414"><g fill="#1d1d1b" fill-rule="nonzero"><path d="M6.535 22.64l10.082 3.32c.99-1.254-4.01-3.004 1.99-14.754 0 0 4.624-9.125 1-11-3.627-1.875-5.5 9.692-5.5 9.692-.626 2.932-1.643 10.8-7.572 12.742zM5.862 23.79l11.115 3.92s-2.645 7.952-3.317 8.702c-.673.75-1.808 1-2.24 1.125-.433.124-7.183-2-7.183-2l1.125-2.11-2.625 1.113L0 33.427s2.112.118 3.362-2.76c1.25-2.88 2.5-6.878 2.5-6.878z"/></g></svg>