<svg viewBox="0 0 34 34" xmlns="http://www.w3.org/2000/svg" fill-rule="evenodd" clip-rule="evenodd" stroke-linejoin="round" stroke-miterlimit="1.414"><path d="M0 0h18.925v32.224H0z"/><path d="M8.256 30.58h3.234c.292 0 .53-.235.53-.525v-.002h.002l.003-.006.005-.007.03-.048.114-.19.407-.71.572-1.054.32-.624.327-.67.325-.702.31-.723.148-.364.14-.364.13-.36.12-.36.11-.353.094-.346.043-.17.038-.167.035-.166.03-.16.027-.158.02-.157.018-.152.013-.148.008-.144.002-.07v-.138l-.003-.068-.003-.067-.005-.066-.008-.062-.007-.063-.01-.062-.01-.06-.013-.06-.013-.058-.015-.057-.016-.056-.017-.055-.018-.054-.018-.053-.02-.052-.02-.05-.02-.052-.024-.05-.024-.048-.026-.047-.024-.046-.028-.046-.026-.046-.028-.045-.03-.043-.03-.045-.03-.043-.03-.042-.03-.04-.065-.08-.068-.078-.067-.075-.072-.073-.07-.073-.074-.07-.075-.066-.148-.13-.58-.48-.133-.12-.06-.058-.06-.06-.058-.06-.028-.03-.027-.03-.025-.03-.025-.032-.023-.032-.023-.03-.023-.033-.02-.033-.02-.032-.018-.033-.02-.034-.015-.033-.015-.034-.015-.035-.006-.017-.01-.017-.005-.017-.006-.02-.007-.017-.004-.017-.007-.018L13 17.99l-.005-.02-.004-.018-.002-.018-.003-.018-.003-.02-.003-.018-.003-.02v-.018l-.003-.02V17.7l.002-.02.003-.02v-.023l.003-.02.003-.022.008-.044.01-.044.01-.045.013-.046.015-.046.016-.047.018-.048.018-.05.022-.05.023-.05.026-.052.027-.053.03-.053.03-.056.036-.056.034-.057.078-.117.087-.123.095-.126.106-.133.116-.136.125-.14.136-.145c.016-.017.024-.038.024-.06 0-.29-.234-.526-.527-.527H5.37c-.294 0-.53.236-.53.525v.002c0 .022.008.043.022.06l.136.145.125.14.116.137.105.132.096.125.088.123.078.117.036.057.033.056.033.056.03.053.027.053.024.052.023.05.022.05.02.05.017.05.016.046.014.046.013.047.01.046.01.045.007.045.004.022.003.02v.022l.004.04V17.82l-.002.02v.018l-.003.02-.002.02-.003.018-.004.018-.003.018-.004.02-.003.018-.005.018-.004.018-.005.017-.006.018-.007.02-.006.016-.006.017-.005.018-.015.036-.016.034-.016.033-.017.034-.018.033-.02.032-.02.033-.02.032-.025.03-.024.033-.024.03-.026.032-.026.03-.027.03-.056.06-.06.06-.063.06-.13.117-.58.48-.15.13-.073.068-.073.07-.07.07-.072.074-.07.075-.065.078-.065.08-.03.04-.032.042-.03.042-.03.044-.03.043-.026.045-.027.046-.027.046-.025.047-.024.048-.022.05-.024.048-.02.05-.022.052-.02.052-.018.053-.016.054-.017.055-.015.056-.015.057-.013.058-.012.06-.01.06-.01.062-.008.063-.006.063-.004.067-.004.067-.002.068-.002.068v.07l.003.07.01.145.01.148.018.152.022.157.026.158.03.16.035.167.04.167.042.17.096.345.11.353.12.358.128.362.14.364.147.363.312.722.324.702.328.67.32.624.57 1.055.407.71.114.19.03.047.004.007.004.005v.002c.002.29.24.526.53.526h.818z" fill="#fff" fill-rule="nonzero"/><path d="M21.28 6.813c.03.004.057.007.084.012.055.012.11.03.16.053.18.083.32.236.39.42.02.054.032.11.04.165.003.027.004.055.006.083l.06 3.54c.046.284.12.563.236.827.104.242.242.468.365.7.04.076.04.076.075.15.087.194.16.39.2.6.033.17.045.342.054.515.014.257.023.514.032.77.024.673.04 1.345.05 2.017.02 1.08.03 2.162.014 3.243-.007.387-.016.775-.038 1.162-.014.246-.03.494-.075.736-.046.244-.124.483-.206.717-.13.37-.278.735-.413 1.104-.034.095-.067.19-.098.284-.1.313-.184.63-.194.96v6.98l-.005.084c-.005.028-.008.056-.014.083-.025.11-.075.213-.145.3-.053.067-.116.124-.187.168-.216.136-.494.152-.724.04-.076-.036-.145-.085-.205-.144-.098-.1-.168-.226-.2-.363-.016-.073-.014-.092-.018-.167 0-2.336-.023-4.673 0-7.01.006-.19.024-.38.057-.57.067-.394.188-.776.323-1.152.122-.334.254-.664.376-1 .048-.138.097-.278.136-.42.016-.057.032-.114.043-.17.016-.092.024-.185.032-.277.01-.12.017-.244.024-.367.016-.333.024-.666.03-1 .013-.846.01-1.692-.002-2.54-.01-.714-.024-1.428-.045-2.143-.006-.166-.01-.333-.017-.5l-.016-.418-.015-.32c-.006-.11-.01-.22-.033-.328-.03-.136-.093-.26-.158-.382-.07-.13-.144-.26-.214-.392-.043-.082-.043-.082-.084-.166-.06-.128-.118-.257-.168-.39-.083-.22-.148-.444-.198-.673-.034-.152-.068-.31-.076-.465l-.062-3.593c0-.028 0-.056.003-.084.006-.056.017-.11.035-.164.07-.215.24-.39.452-.468.053-.02.108-.033.163-.04.028-.004.056-.005.084-.007l.084.003z" fill="#1d1d1b" fill-rule="nonzero"/><path d="M33.227 20.02c0-.81-1.993-1.463-4.453-1.463s-4.454.654-4.454 1.462c0 .807.933 11.343.933 11.343 0 .683 1.432 1.237 3.54 1.237 2.11 0 3.54-.554 3.54-1.237s.893-11.378.893-11.378" fill-rule="nonzero"/><path d="M28.885 18.006c.677.006 1.355.045 2.026.14.382.054.762.126 1.133.23.213.062.424.134.623.23.153.074.3.162.424.28.083.08.153.174.197.28.082.2.06.427-.056.607-.06.094-.136.174-.223.244-.12.095-.256.17-.396.233-.204.093-.42.164-.638.223-.262.07-.528.126-.795.17-.793.133-1.6.182-2.402.182-.803 0-1.61-.05-2.403-.182-.267-.044-.533-.1-.795-.17-.218-.06-.434-.13-.64-.223-.14-.064-.275-.138-.395-.233-.087-.07-.164-.15-.224-.244-.115-.18-.138-.408-.056-.606.044-.107.114-.2.197-.28.122-.118.27-.207.423-.28.2-.097.41-.17.623-.23.37-.105.75-.177 1.132-.23.67-.096 1.35-.135 2.026-.14.074-.002.147-.002.22 0zm-.216.75c-.527.005-1.053.03-1.576.088-.353.04-.705.093-1.052.17-.24.055-.48.12-.707.212-.078.032-.156.068-.23.11-.04.023-.08.048-.113.08.018.016.04.03.06.044.2.13.432.207.66.272.337.096.684.16 1.032.21.672.095 1.352.133 2.03.133.65 0 1.302-.035 1.946-.12.435-.06.874-.14 1.292-.277.125-.04.248-.088.365-.148.063-.032.128-.067.18-.115-.018-.016-.04-.03-.06-.045-.15-.097-.317-.162-.485-.218-.213-.07-.43-.123-.65-.168-.78-.16-1.58-.215-2.377-.227-.105 0-.21-.002-.316 0z" fill="#fff" fill-rule="nonzero"/></svg>