<svg viewBox="0 0 29 29" xmlns="http://www.w3.org/2000/svg" fill-rule="evenodd" clip-rule="evenodd" stroke-linejoin="round" stroke-miterlimit="1.414"><path d="M13.514 16.91l-6.432-3.715L.65 16.91v7.425l6.432 3.714 6.432-3.715V16.91z" fill-rule="nonzero"/><path d="M13.89 16.692v7.86l-6.808 3.93-6.807-3.93v-7.86l6.807-3.93 6.807 3.93zm-12.865.433v6.994l6.057 3.496 6.057-3.497v-6.995L7.08 13.628c-2.02 1.166-4.038 2.33-6.057 3.497zM27.846 17.15l-6.43-3.714-6.434 3.713v7.425l6.433 3.714 6.43-3.715V17.15z" fill="#1d1d1b" fill-rule="nonzero"/><path d="M28.22 16.932v7.86l-6.805 3.93-6.808-3.93v-7.86l6.808-3.93 6.806 3.93zm-12.863.433v6.994l6.058 3.496 6.056-3.497v-6.995l-6.055-3.496c-2.02 1.164-4.04 2.33-6.058 3.495z" fill="#1d1d1b" fill-rule="nonzero"/><path d="M20.936 4.364L14.504.65 8.072 4.364v7.426l6.432 3.714 6.432-3.714V4.364z" fill-rule="nonzero"/><path d="M21.31 4.147v7.86l-6.806 3.93-6.807-3.93v-7.86l6.807-3.93 6.807 3.93zM8.448 4.58v6.994l6.057 3.497 6.057-3.496V4.58l-6.056-3.497c-2.02 1.165-4.038 2.33-6.057 3.497z" fill="#1d1d1b" fill-rule="nonzero"/><path d="M15.545 2.5c.043.006.086.012.13.023.055.016.108.038.16.064l3.735 2.005.394.69-.177 4.375c-.01.148-.054.287-.14.407-.155.216-.42.336-.684.31-.072-.008-.143-.026-.21-.053-.08-.032-.156-.08-.22-.138-.076-.07-.137-.153-.18-.246-.048-.108-.066-.222-.065-.34l.16-3.904-3.322-1.783-.038-.023c-.098-.064-.182-.143-.245-.244-.038-.062-.067-.13-.086-.2-.082-.3.037-.63.292-.808.12-.086.26-.128.408-.136h.087zM7.668 15.61c.044.005.086.01.13.023.056.015.11.037.16.064l3.736 2.004.395.693-.18 4.374c-.007.117-.035.23-.092.333-.05.09-.117.168-.198.23-.07.053-.148.094-.23.12-.254.08-.537.02-.734-.16-.053-.048-.1-.105-.137-.167-.078-.128-.11-.27-.108-.417l.16-3.905L7.25 17.02l-.038-.02c-.1-.066-.183-.145-.245-.246-.165-.265-.145-.614.048-.86.045-.056.098-.106.158-.148.12-.085.26-.127.408-.136.045 0 .044 0 .088.002zM22.278 15.61c.044.005.087.01.13.023.056.015.11.038.16.064l3.735 2.004.395.693-.18 4.374c-.01.147-.052.286-.14.407-.153.215-.418.335-.682.31-.072-.01-.144-.026-.21-.054-.082-.033-.157-.08-.22-.14-.076-.068-.137-.152-.18-.245-.048-.108-.067-.222-.065-.34l.16-3.904-3.32-1.782-.038-.02c-.124-.082-.224-.188-.287-.322-.03-.066-.052-.136-.063-.208-.045-.31.11-.62.385-.77.104-.056.217-.083.334-.09.045 0 .044 0 .088.002z" fill="#fff" fill-rule="nonzero"/></svg>