<?xml version="1.0" standalone="no"?><!DOCTYPE svg PUBLIC "-//W3C//DTD SVG 1.1//EN" "http://www.w3.org/Graphics/SVG/1.1/DTD/svg11.dtd"><svg width="100%" height="100%" viewBox="0 0 600 700" version="1.1" xmlns="http://www.w3.org/2000/svg" xmlns:xlink="http://www.w3.org/1999/xlink" xml:space="preserve" style="fill-rule:evenodd;clip-rule:evenodd;stroke-linecap:round;stroke-linejoin:round;stroke-miterlimit:1.41421;"><path id="LWPOLYLINE_2_" d="M281.338,7.627l-191.7,0c-13.019,0 -23.573,10.546 -23.573,23.557c0,0.023 0,0.046 0,0.069c0.004,0.993 0.382,1.941 1.063,2.671l6.026,6.561l5.572,6.33l5.138,6.109l4.702,5.893l4.29,5.678l3.88,5.474l3.486,5.28l1.6,2.571l1.503,2.521l1.412,2.483l1.317,2.427l1.23,2.394l1.141,2.34l1.05,2.306l0.965,2.258l0.88,2.225l0.802,2.179l0.711,2.137l0.639,2.108l0.551,2.069l0.476,2.036l0.401,1.997l0.326,1.965l0.134,0.97l0.12,0.961l0.101,0.952l0.079,0.938l0.065,0.938l0.042,0.929l0.03,0.925l0.013,0.915l-0.01,0.906l-0.023,0.899l-0.039,0.89l-0.059,0.882l-0.068,0.883l-0.088,0.867l-0.108,0.87l-0.124,0.853l-0.137,0.851l-0.15,0.843l-0.166,0.834l-0.186,0.838l-0.199,0.827l-0.208,0.818l-0.229,0.814l-0.238,0.811l-0.26,0.805l-0.268,0.795l-0.283,0.788l-0.297,0.789l-0.636,1.56l-0.685,1.535l-0.74,1.511l-0.789,1.502l-0.841,1.479l-0.884,1.463l-0.932,1.45l-0.975,1.427l-1.017,1.427l-1.06,1.407l-1.099,1.391l-1.141,1.381l-1.177,1.369l-1.213,1.368l-2.53,2.694l-2.654,2.675l-2.774,2.645l-5.856,5.275l-25.855,21.631l-6.632,5.832l-3.273,3.017l-3.241,3.091l-3.189,3.183l-3.127,3.268l-3.055,3.375l-2.97,3.476l-2.879,3.577l-1.398,1.838l-1.37,1.866l-1.34,1.903l-1.311,1.932l-1.278,1.964l-1.245,2.004l-1.21,2.036l-1.177,2.065l-1.134,2.108l-1.099,2.147l-1.06,2.186l-1.014,2.222l-0.971,2.267l-0.93,2.307l-0.88,2.345l-0.835,2.385l-0.785,2.444l-0.737,2.472l-0.685,2.528l-0.632,2.571l-0.571,2.609l-0.522,2.672l-0.466,2.713l-0.407,2.769l-0.34,2.815l-0.286,2.867l-0.222,2.926l-0.16,2.984l-0.098,3.03l-0.042,3.078l0.019,3.131l0.079,3.176l0.329,6.49l0.551,6.656l0.76,6.821l0.968,6.985l1.171,7.125l1.359,7.262l1.546,7.392l1.718,7.499l1.888,7.61l4.248,15.508l4.825,15.823l5.347,16.067l5.807,16.224l6.205,16.315l6.543,16.329l13.851,32.392l14.463,31.536l14.594,30.069l14.228,27.998l25.422,47.346l18.118,31.777l5.096,8.532l1.346,2.163l0.199,0.313l0.147,0.208l0.052,0.069l0.036,0.052c0.029,13.024 10.583,23.573 23.605,23.573l100.288,0" style="fill:none;stroke-width:6.52px;stroke:#000;"/><path d="M378.212,538.739c0,2.495 -2.498,4.619 -7.49,6.375c-4.991,1.756 -11.004,2.636 -18.033,2.636c-9.168,0 -20.404,-1.401 -33.7,-4.199c-6.468,3.055 -12.419,7.698 -17.844,13.933c-5.425,6.236 -11.323,15.208 -17.688,26.916c3.156,0.508 5.778,0.916 7.868,1.222c2.852,-6.568 6.928,-9.848 12.226,-9.848c3.616,0 5.425,1.4 5.425,4.199c0,2.241 -1.209,4.059 -3.628,5.46c-2.42,1.401 -5.592,2.101 -9.514,2.101l-1.529,0c-0.154,0.202 -0.789,1.554 -1.911,4.046c-1.275,2.952 -3.107,5.461 -5.504,7.523c-2.389,2.062 -4.633,3.091 -6.723,3.091c-0.714,0 -1.069,-0.153 -1.069,-0.459c0,-0.254 0.254,-0.459 0.763,-0.612c3.515,-1.069 7.078,-5.776 10.694,-14.126c-1.477,-0.153 -3.616,-0.46 -6.416,-0.916l-1.451,-0.306c-0.714,1.274 -1.758,3.157 -3.134,5.649c-4.382,7.838 -7.935,13.439 -10.661,16.797c-2.726,3.359 -6.407,6.669 -11.043,9.927c-12.328,8.653 -25.066,12.979 -38.209,12.979c-7.744,0 -14.085,-1.616 -19.028,-4.848c-4.943,-3.231 -7.411,-7.395 -7.411,-12.483c0,-2.545 0.75,-4.721 2.253,-6.529c1.503,-1.808 3.3,-2.711 5.386,-2.711c3.362,0 5.044,1.704 5.044,5.115c0,1.577 -0.521,2.939 -1.565,4.085c-1.043,1.147 -2.305,1.717 -3.782,1.717c-2.497,0 -3.743,-1.195 -3.743,-3.59c0.153,-1.221 0,-1.831 -0.46,-1.831c-0.968,0 -1.45,1.349 -1.45,4.046c0,4.275 2.23,7.93 6.687,10.957c4.457,3.026 9.846,4.544 16.162,4.544c9.934,0 18.874,-2.964 26.823,-8.894c7.949,-5.929 16.661,-16.175 26.136,-30.734c0.815,-1.169 2.011,-2.978 3.593,-5.421l-1.451,0c-5.706,0 -9.654,2.189 -11.845,6.568c-0.255,0.713 -0.535,1.068 -0.842,1.068c-0.407,0 -0.613,-0.202 -0.613,-0.612c0,-2.036 1.438,-3.958 4.317,-5.766c2.879,-1.808 5.921,-2.711 9.133,-2.711l2.217,0c13.345,-20.159 27.329,-33.493 41.948,-40.009c-3.922,-0.867 -7.997,-1.857 -12.226,-2.978c-13.655,-3.564 -24.248,-5.346 -31.786,-5.346c-1.529,0 -2.98,0.052 -4.356,0.153c2.191,4.226 3.287,8.985 3.287,14.279c0,11.096 -4.343,21.557 -13.029,31.383c-8.689,9.825 -17.972,14.735 -27.854,14.735c-4.176,0 -7.564,-1.31 -10.163,-3.932c-2.598,-2.623 -3.896,-6.043 -3.896,-10.269c0,-9.62 5.005,-19.355 15.014,-29.206c10.01,-9.852 21.18,-16.074 33.511,-18.667c-3.873,-5.754 -9.807,-8.627 -17.805,-8.627c-13.094,0 -24.936,6.362 -35.532,19.087c-0.867,0.867 -1.35,1.297 -1.451,1.297c-0.307,0 -0.509,-0.179 -0.613,-0.534c0,-0.916 2.139,-3.359 6.42,-7.33c9.882,-9.161 20.097,-13.745 30.641,-13.745c9.374,0 16.175,3.183 20.404,9.545c5.399,-1.374 11.692,-2.062 18.871,-2.062c4.535,0 8.712,0.355 12.533,1.069c3.821,0.713 13.016,2.798 27.587,6.261c11.359,-4.378 22.007,-6.568 31.942,-6.568c5.859,0 10.583,0.649 14.176,1.949c3.593,1.299 5.387,3.02 5.387,5.157ZM269.245,545.609c0,-3.41 -0.841,-6.847 -2.52,-10.307c-11.718,1.476 -22.696,7.063 -32.937,16.761c-10.241,9.699 -15.36,19.332 -15.36,28.9c0,3.564 1.135,6.591 3.401,9.086c2.266,2.496 5.083,3.74 8.444,3.74c8.865,0 17.577,-5.307 26.136,-15.921c8.558,-10.61 12.836,-21.364 12.836,-32.259ZM307.604,580.123c0,-2.19 -1.249,-3.284 -3.743,-3.284c-3.313,0 -6.139,2.622 -8.484,7.864l-0.613,1.375l1.911,0c3.159,0 5.771,-0.56 7.831,-1.681c2.061,-1.121 3.098,-2.544 3.098,-4.274ZM376.761,538.892c0,-1.577 -1.67,-2.939 -5.005,-4.085c-3.336,-1.147 -7.349,-1.717 -12.034,-1.717c-11.105,0 -21.294,1.935 -30.567,5.802l10.241,2.29c8.559,1.984 16.429,2.978 23.612,2.978c3.668,0 6.876,-0.535 9.628,-1.603c2.752,-1.069 4.125,-2.29 4.125,-3.665Z" style="fill:#000;fill-rule:nonzero;"/><path d="M341.763,549.809c-21.395,35.582 -33.866,56.503 -37.407,62.765c-3.54,6.261 -5.311,10.409 -5.311,12.445c0,2.29 0.969,3.437 2.909,3.437c4.284,0 12.141,-8.08 23.569,-24.242c0.254,-0.508 0.561,-0.762 0.916,-0.762c0.202,0.052 0.307,0.202 0.307,0.459c0,0.307 -0.255,0.717 -0.763,1.225l-3.293,4.512c-9.638,13.305 -16.755,19.958 -21.343,19.958c-2.194,0 -3.994,-0.828 -5.393,-2.483c-1.405,-1.655 -2.106,-3.753 -2.106,-6.3c0,-2.799 0.649,-5.509 1.95,-8.132c1.301,-2.622 5.719,-10.194 13.257,-22.717c9.22,-15.321 16.99,-28.606 23.305,-39.856c1.529,0.408 2.879,0.613 4.05,0.613c1.94,-0.004 3.723,-0.31 5.353,-0.922Z" style="fill:#000;fill-rule:nonzero;"/><path d="M371.984,603.83c0,0.811 -1.503,2.717 -4.512,5.708c-4.487,4.466 -8.618,6.701 -12.39,6.701c-1.578,0 -2.983,-0.306 -4.206,-0.916c-6.726,9.52 -13.051,14.279 -18.962,14.279c-3.059,0 -5.674,-1.26 -7.838,-3.779c-2.169,-2.518 -3.251,-5.535 -3.251,-9.047c0,-7.838 5.145,-15.399 15.435,-22.677c7.235,-5.141 13.195,-7.711 17.88,-7.711c4.382,0 6.573,2.342 6.573,7.023c0,5.855 -3.081,12.905 -9.247,21.15c1.018,0.613 2.165,0.916 3.44,0.916c2.292,0 4.969,-1.066 8.037,-3.196c3.062,-2.128 5.566,-4.692 7.509,-7.686c0.564,-0.71 0.975,-1.065 1.229,-1.065c0.202,-0.003 0.303,0.098 0.303,0.3ZM359.568,593.561c0,-4.124 -1.858,-6.183 -5.578,-6.183c-4.636,0 -10.29,4.427 -16.964,13.285c-6.674,8.858 -10.01,16.315 -10.01,22.372c0,3.512 1.683,5.268 5.044,5.268c5.504,0 11.513,-4.532 18.034,-13.592c-1.477,-1.629 -2.217,-3.31 -2.217,-5.04c0,-2.495 0.994,-5.066 2.98,-7.711c1.985,-2.645 3.922,-3.971 5.806,-3.971c0.816,0 1.376,0.508 1.683,1.528c0.815,-1.783 1.222,-3.767 1.222,-5.956Z" style="fill:#000;fill-rule:nonzero;"/><path d="M415.693,603.908c0,0.411 -1.532,2.271 -4.59,5.594c-3.88,4.287 -7.532,6.434 -10.949,6.434c-3.876,0 -5.816,-2.241 -5.816,-6.718c0,-1.427 0.306,-3.231 0.916,-5.421c-3.209,2.799 -5.82,5.574 -7.832,8.324c-2.011,2.75 -5.49,8.347 -10.43,16.797c-2.7,-0.202 -4.278,-0.306 -4.737,-0.306c-0.202,0 -1.758,0.101 -4.663,0.306l12.533,-20.309c6.267,-10.181 9.4,-16.491 9.4,-18.934c0,-1.427 -0.587,-2.137 -1.76,-2.137c-2.86,0 -8.041,5.486 -15.546,16.455c-0.463,0.713 -0.871,1.068 -1.226,1.068c-0.202,-0.052 -0.307,-0.202 -0.307,-0.459c0.053,-0.254 0.154,-0.459 0.307,-0.613l1.379,-1.915c7.858,-10.454 13.189,-15.683 15.996,-15.683c4.082,0 6.123,2.622 6.123,7.864c0,3.919 -2.09,9.112 -6.267,15.576c2.648,-3.056 5.171,-5.548 7.564,-7.483c1.937,-4.532 4.343,-8.324 7.222,-11.377c2.879,-3.052 5.465,-4.58 7.757,-4.58c1.578,0 2.37,0.687 2.37,2.062c0,2.443 -3.541,5.929 -10.622,10.461c-1.122,0.713 -2.801,1.756 -5.044,3.131l-0.916,0.762c-0.714,2.342 -1.07,4.274 -1.07,5.802c0,4.274 1.608,6.415 4.822,6.415c3.981,0 8.321,-3.294 13.016,-9.881c1.017,-1.124 1.66,-1.688 1.914,-1.688c0.303,-0.006 0.456,0.147 0.456,0.453Z" style="fill:#000;fill-rule:nonzero;"/><path d="M443.779,586.384l-0.613,1.147l-10.01,0l-17.042,29.092c-2.09,3.512 -3.133,6.314 -3.133,8.399c0,2.29 1.196,3.437 3.599,3.437c4.643,0 12.471,-8.079 23.491,-24.241c0.356,-0.509 0.662,-0.763 0.917,-0.763c0.306,0 0.459,0.153 0.459,0.46c-0.052,0.153 -0.306,0.56 -0.763,1.225l-3.289,4.512c-9.589,13.304 -16.805,19.957 -21.653,19.957c-2.396,0 -4.398,-0.867 -6.005,-2.597c-1.608,-1.729 -2.41,-3.893 -2.41,-6.489c0,-3.056 1.35,-6.871 4.05,-11.455l12.839,-21.53l-7.796,0l0.763,-1.147l7.643,0l8.94,-14.813c1.529,0.407 2.98,0.612 4.356,0.612c1.428,0 2.905,-0.202 4.431,-0.612l-8.787,14.813l10.013,0l0,-0.007Z" style="fill:#000;fill-rule:nonzero;"/><path d="M485.003,603.908c0,0.411 -1.532,2.271 -4.59,5.594c-3.88,4.287 -7.532,6.434 -10.949,6.434c-3.876,0 -5.816,-2.241 -5.816,-6.718c0,-1.427 0.306,-3.231 0.916,-5.421c-3.208,2.799 -5.82,5.574 -7.832,8.324c-2.011,2.75 -5.49,8.347 -10.43,16.797c-2.699,-0.202 -4.278,-0.306 -4.737,-0.306c-0.202,0 -1.758,0.101 -4.663,0.306l12.533,-20.309c6.267,-10.181 9.4,-16.491 9.4,-18.934c0,-1.427 -0.587,-2.137 -1.76,-2.137c-2.86,0 -8.041,5.486 -15.546,16.455c-0.463,0.713 -0.871,1.068 -1.226,1.068c-0.202,-0.052 -0.307,-0.202 -0.307,-0.459c0.053,-0.254 0.154,-0.459 0.307,-0.613l1.379,-1.915c7.858,-10.454 13.189,-15.683 15.996,-15.683c4.082,0 6.123,2.622 6.123,7.864c0,3.919 -2.09,9.112 -6.267,15.576c2.648,-3.056 5.171,-5.548 7.564,-7.483c1.937,-4.532 4.343,-8.324 7.222,-11.377c2.879,-3.052 5.465,-4.58 7.757,-4.58c1.578,0 2.37,0.687 2.37,2.062c0,2.443 -3.541,5.929 -10.622,10.461c-1.122,0.713 -2.801,1.756 -5.044,3.131l-0.916,0.762c-0.714,2.342 -1.07,4.274 -1.07,5.802c0,4.274 1.608,6.415 4.822,6.415c3.981,0 8.321,-3.294 13.016,-9.881c1.017,-1.124 1.66,-1.688 1.914,-1.688c0.303,-0.006 0.456,0.147 0.456,0.453Z" style="fill:#000;fill-rule:nonzero;"/><path d="M538.647,603.908c0,1.072 -3.723,6.017 -11.17,14.836c-6.019,7.239 -10.763,10.858 -14.229,10.858c-2.347,0 -4.261,-0.879 -5.738,-2.635c-1.48,-1.756 -2.22,-3.958 -2.22,-6.604c0,-2.749 0.815,-5.727 2.445,-8.933c-5.093,7.128 -8.992,11.937 -11.692,14.432c-2.7,2.496 -5.324,3.74 -7.871,3.74c-2.699,0 -4.965,-1.156 -6.801,-3.472c-1.835,-2.317 -2.752,-5.229 -2.752,-8.744c0,-9.774 6.903,-18.427 20.711,-25.962c6.061,-3.359 10.951,-5.04 14.672,-5.04c3.159,0 4.737,1.528 4.737,4.581c0,0.866 -0.202,2.01 -0.613,3.437l3.896,-7.405c1.529,0.355 2.879,0.534 4.05,0.534c1.375,0 3.159,-0.179 5.35,-0.534l-13.524,22.371c-4.689,7.838 -7.03,13.005 -7.03,15.501c0,2.391 0.995,3.59 2.984,3.59c2.041,0 5.307,-2.333 9.797,-6.995c4.49,-4.668 9.054,-10.412 13.697,-17.246c0.307,-0.509 0.587,-0.763 0.841,-0.763c0.307,-0.006 0.46,0.147 0.46,0.453ZM517.594,591.271c0,-2.495 -1.147,-3.74 -3.439,-3.74c-4.689,0 -10.838,4.581 -18.454,13.745c-7.617,9.164 -11.425,16.569 -11.425,22.218c0,3.31 1.477,4.962 4.431,4.962c3.515,0 9.602,-5.829 18.265,-17.485c7.082,-9.571 10.622,-16.136 10.622,-19.7Z" style="fill:#000;fill-rule:nonzero;"/><path d="M564.936,603.908c-0.052,0.153 -0.307,0.56 -0.763,1.225l-3.29,4.512c-9.589,13.305 -16.912,19.957 -21.956,19.957c-2.396,0 -4.398,-0.853 -6.005,-2.557c-1.608,-1.704 -2.41,-3.831 -2.41,-6.375c0,-2.952 1.758,-7.432 5.272,-13.439l11.92,-20.234c1.579,0.355 2.827,0.534 3.743,0.534c1.376,0 3.313,-0.179 5.807,-0.534l-17.345,28.48c-2.498,4.124 -3.743,7.304 -3.743,9.545c0,2.29 1.196,3.437 3.599,3.437c4.539,0 12.524,-8.079 23.951,-24.241c0.255,-0.509 0.509,-0.763 0.763,-0.763c0.304,-0.006 0.457,0.147 0.457,0.453ZM563.827,572.333c0,1.782 -0.75,3.45 -2.253,5.001c-1.503,1.551 -3.146,2.329 -4.929,2.329c-2.293,0 -3.44,-1.146 -3.44,-3.437c0,-1.681 0.789,-3.297 2.37,-4.847c1.581,-1.551 3.234,-2.33 4.966,-2.33c2.191,0.004 3.286,1.098 3.286,3.284Z" style="fill:#000;fill-rule:nonzero;"/><path d="M593.246,586.384l-0.613,1.147l-10.009,0l-17.043,29.092c-2.09,3.512 -3.133,6.314 -3.133,8.399c0,2.29 1.197,3.437 3.6,3.437c4.642,0 12.471,-8.079 23.491,-24.241c0.355,-0.509 0.662,-0.763 0.916,-0.763c0.307,0 0.46,0.153 0.46,0.46c-0.052,0.153 -0.307,0.56 -0.763,1.225l-3.29,4.512c-9.589,13.304 -16.804,19.957 -21.652,19.957c-2.397,0 -4.399,-0.867 -6.006,-2.597c-1.607,-1.729 -2.409,-3.893 -2.409,-6.489c0,-3.056 1.349,-6.871 4.049,-11.455l12.84,-21.53l-7.796,0l0.763,-1.147l7.642,0l8.94,-14.813c1.529,0.407 2.98,0.612 4.356,0.612c1.428,0 2.905,-0.202 4.431,-0.612l-8.787,14.813l10.013,0l0,-0.007Z" style="fill:#000;fill-rule:nonzero;"/></svg>